/* XPM */
static char *result[] = {
/* columns rows colors chars-per-pixel */
"32 32 18 1 ",
"  c #06000C",
". c #0B0014",
"X c #0E001B",
"o c #11001E",
"O c #18001F",
"+ c #130024",
"@ c #1B0025",
"# c #16002A",
"$ c #1B002C",
"% c #1D0031",
"& c #250026",
"* c #280026",
"= c #23002D",
"- c #2B002D",
"; c #34002E",
": c #240033",
"> c #2B0034",
", c #320033",
/* pixels */
">:>--->,,,,;;,:###:::>-->-,,;;;;",
"+#####%:>>;-:%#o..o+####%%:>,->>",
".oo+++#+#$%#+#oX.  .+o++#@+#%###",
"o=&++=$+Xo#+Xoo.   X:&++$$+oo#+X",
"::%%>>,,::=>>>>:=$::::%:,,>:%:>>",
"##$$$%>:%:>>>:%%:$$###$$%>:::>,>",
"@&==++##$####+++oX+@=:$++##$##++",
">,,,$++#%#XXXX+++&>-,,>=++$:++XX",
">%%%::>>:#oX#:,,>>>>:%$:>>>:#Xo#",
"$##++$%%#+X.+%:::$:$##++$%%$oX.o",
"$::=:=#++o...o##+X+#::>::#++X...",
":>>>>,>=++o++XooX+:::>>,>>&+oo++",
"#++#$$:::::%:$+XX+#+++#$$:>:::%:",
"oo@@###+##$+++X...oXo@###+##%$++",
"--;,$+Xo>>--@+...o=--;,:XX+=,>*$",
",,-:%@XX=>>:>-***-;,,:>%+Xo$>:>>",
"$+##o...+##$#$>>>>:$+##+..Xo####",
"++#$++..X+#++#%$###o+@$+o...##++",
"&:,;;;>=$+oo@+XXoo+&>>,,,>*:+X+#",
"::>>>>>,,>=--=#+++%::>>>>,,,>=--",
"###$#$%:>:>:%$+X..X+###$%::>:::%",
"o+++#####$$$++oX..XX+o++####$$##",
"--=@+=$+o+##oooo.o@*-=@+=$+o+##o",
">>::=>,>&#$$=-$#$:>>>:%:>,-=@$$:",
"++$##$::%::>:%$%$##++###%:%%::::",
"$&:%++###++##+o++o+%*=$++###++##",
",,,,=@+=>$+XXo@$*->,,,,>++>>#+XX",
">:>:>>>,:$XX+%>,,>,>::::>-,>#+X+",
"@++++##%+o..X#%:%#$#+#+##$%#X..o",
"@$&@@&#+o   ..+#+o@@@$&&&#+o....",
":>>>>>,-O..o+oXoX@:::>>>>,>-==-&",
"$#%:%%>>=$$$:$##+###$%:%%>>:::::"
};
