/* XPM */
static char *_0b86d26df7546cc9525e0ef44dd9c5435WWvgw2QemKI7TF[] = {
/* columns rows colors chars-per-pixel */
"32 32 135 2 ",
"   c #06000D",
".  c #0A0013",
"X  c #0D001B",
"o  c #10001F",
"O  c #130023",
"+  c #180027",
"@  c #15002A",
"#  c #1A002D",
"$  c #1B0033",
"%  c #1E003B",
"&  c #220035",
"*  c #2C0037",
"=  c #23003C",
"-  c #29003E",
";  c #32003E",
":  c #230044",
">  c #2B0043",
",  c #26004A",
"<  c #2B004C",
"1  c #330044",
"2  c #3A0046",
"3  c #34004B",
"4  c #3B004C",
"5  c #2B0052",
"6  c #340055",
"7  c #3B0054",
"8  c #350059",
"9  c #3E005A",
"0  c #3B005C",
"q  c #3D005C",
"w  c #3C005A",
"e  c #460043",
"r  c #44004C",
"t  c #4E004C",
"y  c #4E004E",
"u  c #4B004C",
"i  c #50004E",
"p  c #51004F",
"a  c #52004D",
"s  c #450050",
"d  c #410054",
"f  c #400056",
"g  c #420056",
"h  c #420053",
"j  c #480053",
"k  c #4E0051",
"l  c #4F0051",
"z  c #490054",
"x  c #480055",
"c  c #4B0057",
"v  c #4C0055",
"b  c #4B0053",
"n  c #400058",
"m  c #410058",
"M  c #410059",
"N  c #430058",
"B  c #41005A",
"V  c #40005B",
"C  c #43005B",
"Z  c #460059",
"A  c #44005A",
"S  c #45005B",
"D  c #46005A",
"F  c #47005A",
"G  c #41005D",
"H  c #43005D",
"J  c #44005D",
"K  c #45005D",
"L  c #46005D",
"P  c #47005D",
"I  c #44005E",
"U  c #46005E",
"Y  c #47005E",
"T  c #46005F",
"R  c #44005C",
"E  c #48005A",
"W  c #49005B",
"Q  c #4D0059",
"!  c #4F005B",
"~  c #4A005E",
"^  c #4B005E",
"/  c #4A005F",
"(  c #4C005C",
")  c #4C005D",
"_  c #4F005C",
"`  c #4C005F",
"'  c #4F005F",
"]  c #4B005C",
"[  c #500051",
"{  c #570051",
"}  c #520055",
"|  c #520056",
" . c #520057",
".. c #550055",
"X. c #530054",
"o. c #590052",
"O. c #5E0054",
"+. c #5F0057",
"@. c #5A0054",
"#. c #520058",
"$. c #530058",
"%. c #520059",
"&. c #51005B",
"*. c #52005A",
"=. c #550058",
"-. c #54005A",
";. c #51005E",
":. c #52005E",
">. c #57005C",
",. c #55005E",
"<. c #53005C",
"1. c #580059",
"2. c #590059",
"3. c #5A0059",
"4. c #5B0059",
"5. c #59005A",
"6. c #58005B",
"7. c #5C0059",
"8. c #5D0059",
"9. c #58005D",
"0. c #59005E",
"q. c #5B005F",
"w. c #5A005C",
"e. c #600050",
"r. c #600051",
"t. c #600055",
"y. c #600059",
"u. c #450060",
"i. c #4C0060",
"p. c #4D0060",
"a. c #4D0060",
"s. c #500060",
"d. c #520060",
"f. c #530060",
"g. c #530060",
/* pixels */
"F 9 z t k t | 2.8.+.r.r.{ ..F > : : 7 M M z t k k | 2.8.t.r.+.o.",
": : , 5 5 5 8 G ` &.p [ 9 8 , $ # O % : , , 5 5 5 8 K ^ | p z M ",
"o $ $ % : : : : < 5 5 5 : : % # O X X X = $ % % : : : , 5 5 , , ",
"* s 2 - = 3 3 = $ % : : $ $ $ @ X   . # j 2 = = 7 3 = $ % : % $ ",
"E M 8 8 K :.q.f.M 7 d Q ` i.K K w 3 M M 9 8 8 9 >.q.f.F 7 d ` Q ",
": : 5 < 5 8 K G 8 8 ` &.^ 0 8 8 8 6 < : < < < < 8 K q 8 9 ` &.:.",
"1 4 M 7 = % : : < < , : : % % % $ $ = 1 7 d 3 = % : > < : , : : ",
"-.>.2.-.3 - = > 7 < % # $ $ = = - 3 v &.q.2.&.7 = = 3 9 : % $ $ ",
"F 8 8 8 7 F i.f.8 , $ $ < 9 2.2.-.^ ` E 8 8 8 7 K i.f.G : % $ : ",
"< , : : : < 6 6 < % @ @ : 6 G K 8 5 8 < , , : : 5 8 6 < $ @ @ % ",
"3 w w d d 7 < = % $ O O # $ : , = % - 3 w 9 g g 7 < = % $ O O O ",
"q K ^ f.i.:.| h = & = = & $ % % $ = 6 9 K i.f.f.:.&.4 > & = = & ",
": % = < 5 5 8 M M 9 9 8 w 6 = % $ % : : % = < < 5 8 F M M 9 7 9 ",
"$ & - 1 , : , : < 5 < : % : # O O O $ $ & - < < : : : , 6 < % % ",
"u p o.+.3 = $ % d &.[ u > = O X O & r u p o.2.h $ $ = 7 >.| u 2 ",
"y.2.F F 8 : # # w ^ F K E k e e e t +.y.-.E K q = # $ 7 K K ^ ^ ",
", : , , $ @ o O % , , , , 5 Q E Q E 8 5 : , , % O O @ % , , , , ",
"% % < 6 = & + O $ % : : : > 8 5 , , : % = < < > & + @ @ : : : % ",
"2 j -.@.{ @.j r 4 > $ & - & $ $ $ % > 3 z -.@.@...v 4 4 = $ - - ",
"K K ` &.Q :.>.q.-.v s j | j > = % = 8 G K ` &.Q :.g.q.q.z h k | ",
": , , < 5 5 8 9 K K K G 5 5 : # @ O $ = , , < 5 5 8 G K K G q 6 ",
"& : % = : , , : < 5 5 5 : : % # O O @ $ = % % : < < , < 5 5 < : ",
"k [ 7 1 > 7 3 - $ % : : $ & $ # @ # 1 r [ 7 > - 7 4 = $ % : : = ",
"` E q 8 w ^ &.| 4 < 3 7 h s 3 3 4 h F ` E G 7 7 ` >.v h > 3 7 h ",
"= : < , , 6 9 8 8 7 F F 9 8 5 6 6 < : = : < , , 6 9 7 8 7 M F 9 ",
"1 2 g 3 % = < : : : : : , : % % $ $ = 1 4 h 3 = = : : < : : : , ",
"q.q.w.q.h 1 - 4 F 6 = $ $ $ > 3 4 j &.q.q.w.-.z > - h E < = $ $ ",
"` G G u.K E v >.G 5 $ $ : 7 &...>.f.g.i.G G u.u.E v >.^ < $ $ = ",
"> : : : : : 5 5 : $ O O $ > 7 9 6 < 3 > : : : : : 5 5 < $ O O $ ",
"; 1 2 1 1 2 3 = @ X . . X O % : % % - ; 1 2 2 2 3 3 = % @ o O O ",
"M G ` >.` :.-.t & O O # ; $ % % $ > 8 q F E :.` >.2.u r 4 r r 2 ",
"5 5 6 8 6 8 K :.7 < < 6 G 8 , : % : 5 5 5 6 8 8 8 F ` K q G M K "
};
