/* XPM */
static char *f06f171266f540a4fca1d552dc0afa7cJHcJ2mtsgCOquUZU[] = {
/* columns rows colors chars-per-pixel */
"32 32 142 2 ",
"   c #110F26",
".  c #180F28",
"X  c #131027",
"o  c #151129",
"O  c #1A132C",
"+  c #1F1630",
"@  c #24142C",
"#  c #2D152F",
"$  c #211730",
"%  c #2F1630",
"&  c #251933",
"*  c #2A1C37",
"=  c #2E1D39",
"-  c #341731",
";  c #381732",
":  c #361832",
">  c #3B1833",
",  c #301E3A",
"<  c #3E1C38",
"1  c #34213E",
"2  c #39223F",
"3  c #421A36",
"4  c #431E3A",
"5  c #4C1C39",
"6  c #541E3B",
"7  c #591F3C",
"8  c #44203D",
"9  c #5B203D",
"0  c #3A2342",
"q  c #392341",
"w  c #3A2441",
"e  c #3B2442",
"r  c #3C2442",
"t  c #3C2443",
"y  c #3D2443",
"u  c #3D2543",
"i  c #3E2542",
"p  c #3E2443",
"a  c #3E2543",
"s  c #3F2543",
"d  c #3B2544",
"f  c #3E2544",
"g  c #3F2544",
"h  c #3C2745",
"j  c #3F2644",
"k  c #3E2847",
"l  c #3F2847",
"z  c #3E2847",
"x  c #3F2848",
"c  c #402544",
"v  c #402545",
"b  c #402644",
"n  c #412644",
"m  c #412645",
"M  c #422745",
"N  c #422746",
"B  c #432746",
"V  c #442847",
"C  c #452847",
"Z  c #402948",
"A  c #412948",
"S  c #412949",
"D  c #422949",
"F  c #432949",
"G  c #432A49",
"H  c #432A4A",
"J  c #462848",
"K  c #472949",
"L  c #442A4A",
"P  c #452A4A",
"I  c #462A4B",
"U  c #472B4B",
"Y  c #472B4C",
"T  c #432A4A",
"R  c #482A4A",
"E  c #482A4B",
"W  c #4A2B4B",
"Q  c #4B2B4B",
"!  c #492B4C",
"~  c #4C2B4C",
"^  c #492C4C",
"/  c #4A2C4C",
"(  c #4A2C4D",
")  c #4B2C4D",
"_  c #4D2C4C",
"`  c #4C2C4D",
"'  c #4C2D4D",
"]  c #4E2C4D",
"[  c #4E2D4D",
"{  c #4F2D4D",
"}  c #4C2D4E",
"|  c #4D2D4E",
" . c #4E2D4E",
".. c #4F2D4E",
"X. c #4E2D4F",
"o. c #4F2D4F",
"O. c #4E2E4E",
"+. c #4F2E4F",
"@. c #4B2D4E",
"#. c #5E2240",
"$. c #502D4E",
"%. c #502D4F",
"&. c #512D4F",
"*. c #502E4F",
"=. c #512E4F",
"-. c #502E4F",
";. c #502E50",
":. c #512E50",
">. c #522E50",
",. c #532E50",
"<. c #522F50",
"1. c #532F50",
"2. c #522E51",
"3. c #522F51",
"4. c #532F51",
"5. c #542F51",
"6. c #532F51",
"7. c #553051",
"8. c #553052",
"9. c #563052",
"0. c #563052",
"q. c #612240",
"w. c #602241",
"e. c #662342",
"r. c #622442",
"t. c #632241",
"y. c #6A2443",
"u. c #6D2544",
"i. c #6E2444",
"p. c #6C2443",
"a. c #702544",
"s. c #732646",
"d. c #752646",
"f. c #772747",
"g. c #732545",
"h. c #782647",
"j. c #7D2747",
"k. c #752748",
"l. c #7A2748",
"z. c #7C2748",
"x. c #7D2849",
"c. c #7C2849",
/* pixels */
"o o # > 3 3 3 3 3 3 3 3 3 3 3 3 3 3 3 3 3 3 3 3 3 3 3 3 ; @ o . ",
"o @ e.x.s.9 6 6 7 7 7 7 9 r.9 7 9 9 7 7 7 7 9 7 7 7 7 u.f.7 O o ",
"# w.k.u.@ o         X X o O o o o o o o               @ w.l.7 @ ",
"> f.s.3   X o * 1 = * * * * * * * * = * * & $ + O O X   # 9 f.- ",
"3 y.# o & 1 l l Y 4.4.) l G 4.9.9.9.9.9.9.9.9.9.4.{ d * X o 9 : ",
"> 5 X O J *.G G { 9.9.9.J G *.9.9.9.9.9.9.5.9.9.9.4.G j O   5 - ",
"> 5   q 9.4.E E * * = s 4.*.{ 2 = , , , = = = 2 *.{ G ) 1 X 5 - ",
"> 5 X s 9.9.*.2 o o o $ * * * O o o O O o o o O 2 *.*.4.s X 5 - ",
"> 5 X m 9.9.= O s 9.9.9.9.9.9.9.9.9.9.{ ) { { 2 o = 9.9.m X 5 - ",
"> 5 o m 9.9.= o s 9.9.9.9.9.4.9.9.9.9.9.5.9.9.4.o * 9.9.m X 5 - ",
"> 5 o m 9.9.= o w 9.9.9.9.9.4.9.9.9.9.9.9.9.9.9.o = 9.9.m X 5 - ",
"> 5 o m 9.9., O j 9.9.9.9.9.9.9.9.9.9.9.9.9.9.9.o = 9.9.m X 5 - ",
"3 5 o m 9.9., o V 9.9.9.9.9.9.9.9.9.9.9.9.9.9.9.+ s 9.9.m X 5 - ",
"3 5 o m 9.9., o J 9.9.9.9.9.9.9.9.9.9.9.9.9.9.9.* { 4.5.j o 5 - ",
"3 7 o j 9.9.= o { 9.9.9.9.9.9.9.9.9.9.9.9.9.9.9.* *.J { s o 6 - ",
"3 7 o s 9.9.= o 9.9.9.9.9.9.9.9.9.9.9.9.9.9.9.9.O 2 J *.w o 7 ; ",
"3 7 o q 9.9.~ & 9.9.9.9.9.9.9.9.9.9.9.9.9.9.! G o , 9.9.s o 7 ; ",
"3 7 o q 9.9.{ & { 9.9.9.9.9.9.9.9.9.9.9.9.9.{ ) o , 9.9.m o 7 ; ",
"3 6 o m 9.9.{ & G { 9.9.9.9.9.9.9.9.9.9.9.9.9.9.o , 9.9.m o 6 ; ",
"3 5 o m 9.9.s O G J 4.9.9.9.9.9.9.9.9.9.9.9.9.9.o , 9.9.m o 6 ; ",
"3 5 X m 9.9.= o 9.{ { 9.9.9.9.9.9.9.9.9.9.9.9.9.o , 9.9.m o 6 ; ",
"3 5 X m 9.9.= o E 4.4.9.9.9.9.9.9.9.9.9.9.9.9.*.o , 9.9.m o 6 ; ",
"3 5 X m 9.9.* O & s 9.9.9.9.9.9.9.9.9.9.9.9.V = o = 9.9.j o 6 ; ",
"3 5 O m 9.9.s & O $ * * * * * * = = = = = * $ o & V 9.9.m X 6 ; ",
"3 5 o j 9.{ ) J = * * = j *.*.*.*.{ s = * * * * ) 4.4.4.w X 6 ; ",
"3 5 X , 4.{ J { 4.~ E 4.9.9.9.9.9.9.9.9.4.{ { { 4.*.) ) 1   6 ; ",
"4 6   O J ) G G *.9.9.9.9.9.9.9.9.9.9.9.4.) ) { G G x l & o 7 ; ",
"5 u.@   1 G x l J 4.9.9.9.5.5.9.9.9.9.9.5.{ { ) x l l = o % u.> ",
"- l.l.5   X X X X X X X o O O O O O O o o o X X X       3 s.l.> ",
"# w.x.l.# # # # # # # # - < 4 8 8 4 4 > - # # # # # # - f.l.u.# ",
"o @ 3 u.s.s.s.s.s.s.s.s.f.x.x.x.j.j.x.x.f.i.p.p.y.y.y.s.l.#.@ o ",
"    o # : : - - - - - - : ; ; ; ; ; ; ; : - - - - - - : : @ o o "
};
