/* XPM */
static char *result[] = {
/* columns rows colors chars-per-pixel */
"32 32 189 2 ",
"   c #05000B",
".  c #0D070F",
"X  c #0B0014",
"o  c #0E011B",
"O  c #100517",
"+  c #11011E",
"@  c #18001F",
"#  c #11091F",
"$  c #190B1E",
"%  c #1D131C",
"&  c #140124",
"*  c #1B0125",
"=  c #130926",
"-  c #1C0A26",
";  c #16002A",
":  c #1B012C",
">  c #170B2B",
",  c #1C0A2D",
"<  c #141226",
"1  c #16132B",
"2  c #19142D",
"3  c #161C2E",
"4  c #1A1A2D",
"5  c #1D0031",
"6  c #1B0C31",
"7  c #1C1131",
"8  c #1A1E30",
"9  c #200027",
"0  c #23012C",
"q  c #2B002D",
"w  c #200B2C",
"e  c #34012E",
"r  c #271B26",
"t  c #2A1F22",
"y  c #23112B",
"u  c #28102C",
"i  c #221E2F",
"p  c #2E1A2F",
"a  c #211422",
"s  c #311C2F",
"d  c #240133",
"f  c #2B0134",
"g  c #240B32",
"h  c #2E0438",
"j  c #2F0B38",
"k  c #2B0C35",
"l  c #320134",
"z  c #350C39",
"x  c #3A0B37",
"c  c #231534",
"v  c #2B1335",
"b  c #231E33",
"n  c #2E1932",
"m  c #34153B",
"M  c #3B153B",
"N  c #351D3A",
"B  c #3B1B3D",
"V  c #341237",
"C  c #1D2333",
"Z  c #22212F",
"A  c #2F212A",
"S  c #35282A",
"D  c #34232E",
"F  c #242434",
"G  c #2A2937",
"H  c #2A2C39",
"J  c #272737",
"K  c #352133",
"L  c #392036",
"P  c #3E2C35",
"I  c #3C243E",
"U  c #302E3C",
"Y  c #3D2839",
"T  c #2F333C",
"R  c #32323C",
"E  c #3B3A3F",
"W  c #38343B",
"Q  c #40153C",
"!  c #401D3D",
"~  c #4C1E3D",
"^  c #422B3C",
"/  c #413135",
"(  c #49353F",
")  c #4A393B",
"_  c #3D1E40",
"`  c #3F2442",
"'  c #3A3C43",
"]  c #442342",
"[  c #4B2443",
"{  c #462D41",
"}  c #4C2A46",
"|  c #502543",
" . c #502D48",
".. c #473141",
"X. c #4B3242",
"o. c #423D47",
"O. c #4E3845",
"+. c #53334A",
"@. c #59374A",
"#. c #5C3C4D",
"$. c #553C47",
"%. c #613E50",
"&. c #414347",
"*. c #444448",
"=. c #4B4549",
"-. c #4C4D4D",
";. c #4B4446",
":. c #51514F",
">. c #5B524E",
",. c #515150",
"<. c #5C5B56",
"1. c #5E5E58",
"2. c #60454C",
"3. c #655A50",
"4. c #6B5B55",
"5. c #63625B",
"6. c #69665D",
"7. c #706456",
"8. c #7A6B5B",
"9. c #6E6C63",
"0. c #726F63",
"q. c #7B7868",
"w. c #797569",
"e. c #797873",
"r. c #7D7D7C",
"t. c #877262",
"y. c #8B7A62",
"u. c #877968",
"i. c #907C65",
"p. c #85816E",
"a. c #8A806B",
"s. c #988468",
"d. c #9C8A6D",
"f. c #898675",
"g. c #8F8A79",
"h. c #878475",
"j. c #968D75",
"k. c #99937A",
"l. c #96917D",
"z. c #A78A71",
"x. c #A39A7D",
"c. c #AB9978",
"v. c #B19F7C",
"b. c #BA9D78",
"n. c #B49B75",
"m. c #B1A07D",
"M. c #C5A67C",
"N. c #C6A87C",
"B. c #CAAB7E",
"V. c #9F9B8A",
"C. c #ACA486",
"Z. c #A8A48F",
"A. c #B6A680",
"S. c #B2A886",
"D. c #B5AC8C",
"F. c #BBAE89",
"G. c #BFB591",
"H. c #CEAF81",
"J. c #CDB587",
"K. c #C5B88F",
"L. c #CDBB8F",
"P. c #D3B483",
"I. c #D6B887",
"U. c #D7BD8D",
"Y. c #D8BE8C",
"T. c #CCBF95",
"R. c #C5BEA3",
"E. c #DBC18E",
"W. c #CEC196",
"Q. c #CEC499",
"!. c #D3C496",
"~. c #DBC99B",
"^. c #CCC4A2",
"/. c #D3CAA7",
"(. c #D5CDAB",
"). c #D2CAB0",
"_. c #DBD4B6",
"`. c #E4D5A3",
"'. c #E5D8A7",
"]. c #ECDEAA",
"[. c #E5D8AB",
"{. c #E8DDB0",
"}. c #E0D9BE",
"|. c #E8DFBD",
" X c #EFE2AF",
".X c #F4EBCA",
"XX c #F5EDD0",
"oX c #F5EED8",
"OX c #F9F2DC",
/* pixels */
"f d f q q q f l l l e e e e d * & & 0 d d d q q f q l l e e e e ",
"; & ; ; ; ; 5 f f f e q d g , y - $ & - ; ; : ; 5 5 d f l q q d ",
"X + + & & ; & & ; 5 6 g I { ( O.) ) / / Y p & & ; : & : 5 ; : ; ",
"+ 0 9 & & : : & + & { ..Y Y K D A t S ^ #.2.L - : : + + + ; & o ",
"d d 5 5 f f l h f k M z f k d d * * d g z ` _ j h l f d 5 d f f ",
"& ; 5 : : 5 f d 5 d f f f g 7 4 c 7 6 , ; 5 g : d f d 5 d f f f ",
"* 0 0 0 & & : & : & ; ; 8 F E 6.q.9.-.' 2 6 : & & & : : & ; & & ",
"f l l l 0 u - : 0 : = < H >.j.G.(.^.D.j.*.J g 0 & & 0 d & & + + ",
"f 5 d 5 V [ h f d ; 2 W s.L. X X.X.XOXOXQ.g.R c d f z _ : & o & ",
": & ; & N v 5 5 ; = F 3.J.`. X`./._.oXOX{.Q.6.H : 5 d ^ w X X & ",
": d d V ! d : & = < R 8.E.`.W.k.,.5.R._.l.V.V.<., : & Y D O X X ",
"d d f [ M f q 0 > Z >.s.E.!.k.-.C H f.V.E &.0.5.c f 0 p ( - & & ",
"& & p ^ g 5 d d 2 G y.M.P.v.;.C 3 C <.1.3 3 ' 5.c d d f } M 5 d ",
"+ & N } ; ; ; ; 1 J y.B.H.d.R 4 3 3 &.5.C 3 H ,.F = ; ; ] N & & ",
"q e ^ | 0 & o + 7 G i.B.P.c.R 4 3 3 T 1.' C R ,.4 # & 0  .| q * ",
"l e | ~ 5 & o o , F 8.b.P.M.7.E C C -.p.h.r.e.9.2 + & 9 }  .h f ",
"; ; { ` + X X X = 2 ;.y.M.H.B.n.x.C.Z.h./..X|.g.< X X & v ` ; ; ",
"& & ^ O.& + X X o > J >.z.b.H.I.`. X).e.D.[.`.C.F o X o K L & & ",
"9 d x ~ e e f 0 0 > 4 U 4.t.b.U.].'.!.F.T.K.F.T.&.g 9 d ^ D ; & ",
"f d l z l f h l l g g b U ;.y.v.`.!.m.W.'.S.a.c.o.g l l @.M q f ",
"; ; ; : v 5 5 d f d d d 6 2 8 T p.q.-.6.u.:.8 J > 5 d l ] j d 5 ",
"+ & & - Y : ; ; : : : : & & = > R T 4 4 H 1 = = ; : ; w B 5 ; ; ",
"q f 0 * X.{ 0 & + + ; & + + + o # = - 0 q 0 * & d 0 & s - ; & + ",
"f f d d [ 2.Q f 0 : : 5 0 q : : 9 0 f f g d d d h l M ! : : : d ",
"& & ; ; w I +._ d 0 d d d 5 : 5 : : & & & : ; : m +._ g 5 d d d ",
"* 9 f : & - { O.c : & : ; & + & + + & * 9 0 : & K ..- ; & ; : ; ",
"l l l h 0 : w B } I y & o + * : 0 q l l l l f f * - d f ; & o o ",
"h d f f f f q l _ { Y D , 0 f l h l h h d d f f f f l f ; + o & ",
"* & & & & ; : : & + a A X...#.@.N w 9 : & & * & ; ; : ; o X X + ",
"* 9 : 9 9 * : & +     . % i K ..w & & & : 9 : 9 : : & & X X X X ",
"d f f f f l l q + O X + * + + + + : d f d f f f l l q q 0 0 0 0 ",
"; ; 5 d 5 : d f 0 : : : d : ; & & & : ; ; 5 d 5 5 f f d d d d f "
};
