/* XPM */
static char *cbbdd69e3ca04f1cb5ce561ccdc13bfd2U4Abguptbg2R3Re[] = {
/* columns rows colors chars-per-pixel */
"32 32 211 2 ",
"   c #0C0019",
".  c #10001F",
"X  c #110717",
"o  c #140124",
"O  c #180327",
"+  c #15002A",
"@  c #1A012E",
"#  c #19092C",
"$  c #161C2E",
"%  c #19162D",
"&  c #1B0133",
"*  c #1B0937",
"=  c #1E013B",
"-  c #1D093A",
";  c #1C1334",
":  c #1B1D31",
">  c #1D1338",
",  c #210B2E",
"<  c #281929",
"1  c #230135",
"2  c #23013C",
"3  c #29013D",
"4  c #24093C",
"5  c #2E0A3E",
"6  c #280736",
"7  c #32003E",
"8  c #211C36",
"9  c #21133B",
"0  c #2C113E",
"q  c #241D39",
"w  c #2B1D3D",
"e  c #2B1B30",
"r  c #1D2333",
"t  c #252435",
"y  c #282737",
"u  c #2B2B39",
"i  c #262438",
"p  c #392830",
"a  c #39223D",
"s  c #342134",
"d  c #2F333C",
"f  c #32323C",
"g  c #3B383F",
"h  c #432E3D",
"j  c #45313C",
"k  c #240044",
"l  c #2B0244",
"z  c #240C44",
"x  c #2B0B43",
"c  c #26014A",
"v  c #2B024C",
"b  c #2F094C",
"n  c #340144",
"m  c #3A0046",
"M  c #330C44",
"N  c #33014C",
"B  c #3B014D",
"V  c #310A4E",
"C  c #3C0C4B",
"Z  c #261143",
"A  c #2B1443",
"S  c #341144",
"D  c #3A1A43",
"F  c #321549",
"G  c #3E194C",
"H  c #2B0052",
"J  c #340155",
"K  c #3B0154",
"L  c #320954",
"P  c #350059",
"I  c #3C015A",
"U  c #3B0858",
"Y  c #3A1352",
"T  c #2E2542",
"R  c #3D2242",
"E  c #322B41",
"W  c #3B3B42",
"Q  c #363143",
"!  c #44014B",
"~  c #4C014C",
"^  c #51014E",
"/  c #401F4E",
"(  c #430053",
")  c #4C0053",
"_  c #44005C",
"`  c #4C015C",
"'  c #470D5C",
"]  c #460B59",
"[  c #520155",
"{  c #5B0154",
"}  c #54005C",
"|  c #5A015C",
" . c #560B5C",
".. c #5B0B5A",
"X. c #451D56",
"o. c #4C155C",
"O. c #4E1F5C",
"+. c #4A1657",
"@. c #571859",
"#. c #600052",
"$. c #60005A",
"%. c #6A1E59",
"&. c #442946",
"*. c #4B2E46",
"=. c #43214A",
"-. c #452549",
";. c #4D3942",
":. c #4F3749",
">. c #473D4D",
",. c #54384C",
"<. c #462451",
"1. c #4A2556",
"2. c #4E2C54",
"3. c #4E265A",
"4. c #502D53",
"5. c #5D235F",
"6. c #572958",
"7. c #5A285E",
"8. c #4F3151",
"9. c #533251",
"0. c #593357",
"q. c #67275C",
"w. c #643A5E",
"e. c #69395E",
"r. c #450060",
"t. c #4C0260",
"y. c #530160",
"u. c #560961",
"i. c #531A60",
"p. c #5A1261",
"a. c #5C2260",
"s. c #5E2B60",
"d. c #632B62",
"f. c #662562",
"g. c #623061",
"h. c #713E64",
"j. c #454648",
"k. c #4B434B",
"l. c #4C4D4D",
"z. c #464447",
"x. c #504D4D",
"c. c #5B524E",
"v. c #51514F",
"b. c #525151",
"n. c #5C5B56",
"m. c #5E5E58",
"M. c #685B53",
"N. c #694559",
"B. c #63625B",
"V. c #69665E",
"C. c #7A6B5B",
"Z. c #706456",
"A. c #6E6C64",
"S. c #6A6760",
"D. c #726F63",
"F. c #7B7769",
"G. c #797873",
"H. c #7D7D7C",
"J. c #8B7A62",
"K. c #877766",
"L. c #907C65",
"P. c #85816E",
"I. c #8A806B",
"U. c #9C8A6D",
"Y. c #988468",
"T. c #8A8675",
"R. c #8B8778",
"E. c #978D75",
"W. c #99937A",
"Q. c #96917D",
"!. c #A78A71",
"~. c #A39A7D",
"^. c #AB9978",
"/. c #BA9D78",
"(. c #B39D79",
"). c #B1A07D",
"_. c #C5A67C",
"`. c #CAAB7E",
"'. c #C6A87C",
"]. c #9F9B8A",
"[. c #ACA486",
"{. c #A8A48F",
"}. c #BBAE89",
"|. c #B5A988",
" X c #BFB591",
".X c #CEAF81",
"XX c #CAB88C",
"oX c #D3B483",
"OX c #D6B887",
"+X c #D8BE8D",
"@X c #CCBF95",
"#X c #C5BEA3",
"$X c #DBC18E",
"%X c #CEC196",
"&X c #CEC499",
"*X c #D3C496",
"=X c #DBC99B",
"-X c #CCC4A2",
";X c #D3CAA7",
":X c #D5CDAB",
">X c #D2CAB0",
",X c #DBD4B6",
"<X c #E4D5A3",
"1X c #ECDEAA",
"2X c #E5D8A9",
"3X c #E5DCB9",
"4X c #EFE2AF",
"5X c #F4EBCA",
"6X c #F5EED8",
"7X c #F5EDD0",
"8X c #F9F2DC",
/* pixels */
"_ I ) ~ ) ~ [ | | { #.#.{ [ _ l k k K _ _ ) ~ ) ) [ | | #.#.{ { ",
"k k c H H H P _ ` } ^ [ I I b 0 , , 4 x c c H H H P _ ` [ ^ ) _ ",
". & & = k k k k v H L L <.2.9.,.;.;.j h =.D 2 = k k k c H H c c ",
"3 ( m 3 2 N N 2 & 2 2.4.&.*.R a e < p *.e.N.=.x K N 2 & = k = & ",
"` _ P J _ } | y._ ] @. .` ` _ U B n K _ ' O.O.' | | t._ K ( ` ` ",
"k k H v H P _ _ P I ` } _ V Z A F Z z z c b b H I _ I I I ` } } ",
"n B _ K 2 2 l k v v k z 9 i W V.F.S.x.W 9 x v 2 = k l v k c k k ",
"} | | } B S 5 l K v * ; f c.E. X:X-X|.E.k.w C B 2 3 B I k = & & ",
"_ I P J o.a.t.y.I c ; g U.XX1X4X5X7X8X8X-XT.Q A _ t.u.i.c = & k ",
"v c k k =.Y J J c * t M.oX<X1X2X;X,X6X6X1X&XA.E c P U 3.0 + + = ",
"N K K +.@.K v 2 * ; f C.$X<X%XW.b.B.#X3XQ.~.~.n.x v 2 -.R O o o ",
"I _ t.f.p.} [ ( 4 8 c.Y.+X*XW.l.r u T.].W j.D.B.C ) B G :.5 3 1 ",
"k = D 4.L H I _ A y J.'.oX(.j.r $ : n.m.: $ W B.A J _ ] s.o.K I ",
"& 1 =.0.v k c k > y J.`..XU.f $ $ $ j.B.r $ u l.w z k c 3.X.2 = ",
"~ ^ %.q.B 2 & = A u L.`.oX^.f $ $ $ d n.f r f v.q & 2 K f.q.~ n ",
"$.| 5.5.J k @ @ x i C./.oX_.Z.g : t l.P.T.H.G.A.; @ & K d.d.` ` ",
"c v 2.1.& + o o - ; k.J._..X`.(.~.[.{.T.;X5X3XR.% o + = Y 1.v c ",
"= 2 2.0.3 1 O o & ; y c.!./.`.OX<X1X>XG.|.2X<X[.t O + + G / k = ",
"m ) ..%.{ { ) ! B 4 : f M.K./.+X1X<X=X}.@XXX}.@Xk.M B B -.R 3 3 ",
"_ _ }  .` } | | } ) M w f z.J.).<X*X|.*X<X|.I.~.>.C | | e.@.) [ ",
"k c c v Y H P I _ _ _ I z 9 8 f P.F.l.V.K.b.q T z P _ ` a.' I J ",
"1 k = z <.b c k v H H H k = * ; f f : : E ; - - k v c V X.H v k ",
") [ K n 9.6.B 3 & = k k & 1 & @ # * l ! ~ B l 3 K B 3 D 4 k k 2 ",
"` ` I I 7.h.@.[ B v N K ( ( N N B ( _ ` ` I J K ` } @.@.l N K ( ",
"2 k v c b 1.w.O.J K _ _ I P H J J v k 2 k v c c +.g.O.U K _ _ I ",
"n m ( N = x 4.0.F l k k c k = = & & 2 n B ( N 2 =.4.b v k k k c ",
"| | | | ( n M +.q.1.S * & & l N B ) } | | | } ) M l ( ` v 2 & & ",
"` _ _ r._ ` ) | i.3.&.a x K [ [ | y.y.t._ _ r.r.` ) | ` v & & 2 ",
"l k k k k k H H k & e s :.9.w.w.X.V N l k k k k k H H v & o o & ",
"7 n n n n n N 2 + .   X < e R 8.x 2 3 7 n m m m m N 2 = + . o o ",
"_ _ ` | ` } } ~ 1 o o @ 7 & = = = l I I _ ` } ` | | ~ ! B ! ! m ",
"H H J I J J _ } K v v J _ J c k = k H H H J I P J _ ` _ I _ _ _ "
};
