/* XPM */
static char *result[] = {
/* columns rows colors chars-per-pixel */
"32 32 206 2 ",
"   c #06000D",
".  c #0D070D",
"X  c #0E0215",
"o  c #0D001D",
"O  c #0C0A1B",
"+  c #070617",
"@  c #12031E",
"#  c #1C0B1D",
"$  c #140A19",
"%  c #1D101A",
"&  c #2E1C1B",
"*  c #24161A",
"=  c #280A1B",
"-  c #3B251B",
";  c #0E0122",
":  c #0C0B24",
">  c #0F0B2A",
",  c #120124",
"<  c #1A0025",
"1  c #130A25",
"2  c #13012B",
"3  c #1B012D",
"4  c #120B2B",
"5  c #1C0B2C",
"6  c #1B0E27",
"7  c #151224",
"8  c #191429",
"9  c #160130",
"0  c #1C0132",
"q  c #140B32",
"w  c #1C0B35",
"e  c #1B1233",
"r  c #220B26",
"t  c #2D0B24",
"y  c #24022E",
"u  c #2B022D",
"i  c #240B2A",
"p  c #2B0C2C",
"a  c #220625",
"s  c #340C2B",
"d  c #390A29",
"f  c #231123",
"g  c #2C112A",
"h  c #2C1828",
"j  c #3C142C",
"k  c #371A2B",
"l  c #230133",
"z  c #2B0133",
"x  c #230A35",
"c  c #2C0B35",
"v  c #2D0B39",
"b  c #210B38",
"n  c #310033",
"m  c #330C36",
"M  c #3B0B35",
"N  c #340B39",
"B  c #3B0C3C",
"V  c #251133",
"C  c #24193A",
"Z  c #2C1737",
"A  c #341234",
"S  c #3D1534",
"D  c #341934",
"F  c #3B1E34",
"G  c #3B123A",
"H  c #3E1E3A",
"J  c #33103A",
"K  c #332224",
"L  c #3A2427",
"P  c #292231",
"I  c #3B2738",
"U  c #41291D",
"Y  c #430B34",
"T  c #4A0C31",
"R  c #450B3D",
"E  c #540A34",
"W  c #540C3A",
"Q  c #4C1435",
"!  c #44143B",
"~  c #4B103B",
"^  c #411D3D",
"/  c #4B1C3F",
"(  c #441533",
")  c #54113C",
"_  c #501034",
"`  c #48172F",
"'  c #412625",
"]  c #4B2C2E",
"[  c #462628",
"{  c #48302C",
"}  c #56342A",
"|  c #482637",
" . c #522934",
".. c #552E35",
"X. c #633A2C",
"o. c #683B35",
"O. c #6E472C",
"+. c #744B2E",
"@. c #784D2F",
"#. c #6B4035",
"$. c #754B33",
"%. c #7B4C34",
"&. c #7B4A38",
"*. c #7D5034",
"=. c #311340",
"-. c #3C2942",
";. c #3E204C",
":. c #3F2C4B",
">. c #421E42",
",. c #4C1F44",
"<. c #4C1D48",
"1. c #531E45",
"2. c #581D45",
"3. c #462A4C",
"4. c #462447",
"5. c #472A52",
"6. c #57244B",
"7. c #855932",
"8. c #8C5C33",
"9. c #865534",
"0. c #8D6B2E",
"q. c #956434",
"w. c #9C633A",
"e. c #986734",
"r. c #967731",
"t. c #A46C3A",
"y. c #AA6E3F",
"u. c #AF743D",
"i. c #B3753E",
"p. c #B3793C",
"a. c #BB7B3E",
"s. c #915740",
"d. c #997F57",
"f. c #B46F4C",
"g. c #AF7042",
"h. c #B67544",
"j. c #BC7B43",
"k. c #B6714B",
"l. c #B9754A",
"z. c #BE7949",
"x. c #C27E46",
"c. c #C07C48",
"v. c #9D842D",
"b. c #AD8B2B",
"n. c #AA8034",
"m. c #BF803E",
"M. c #C4853E",
"N. c #C98A3D",
"B. c #C48F37",
"V. c #D4943F",
"C. c #D79A3D",
"Z. c #D99D3C",
"A. c #CC9539",
"S. c #DFAA36",
"D. c #DCA33A",
"F. c #D4A732",
"G. c #E2AD36",
"H. c #E1AA38",
"J. c #E6B534",
"K. c #EABC32",
"L. c #EEC42E",
"P. c #EFCE29",
"I. c #F3CC2D",
"U. c #F1C72E",
"Y. c #FCDE26",
"T. c #F6D22C",
"R. c #F9D729",
"E. c #FADA29",
"W. c #ECC130",
"Q. c #FCDF31",
"!. c #FFE225",
"~. c #FFE32A",
"^. c #FFE535",
"/. c #FEE53A",
"(. c #958057",
"). c #C58244",
"_. c #C98643",
"`. c #CD8A42",
"'. c #D08D41",
"]. c #D19240",
"[. c #F3DD58",
"{. c #FFE742",
"}. c #FFEA5C",
"|. c #FFEB62",
" X c #FFED6C",
".X c #FFED75",
"XX c #FFEE7A",
"oX c #99858C",
"OX c #9A889D",
"+X c #FFF08B",
"@X c #FFF294",
"#X c #FFF39C",
"$X c #F3E8AE",
"%X c #FFF5A8",
"&X c #FFF7BE",
"*X c #FFF5B1",
"=X c #FFF9CC",
"-X c #FFF7C3",
";X c #FFFBDD",
":X c #FFF9D0",
">X c #F2EFE8",
",X c #FFFBE2",
"<X c #F3F0EA",
"1X c #FFFEF5",
"2X c #FFFFFE",
"3X c #F3F1F3",
/* pixels */
"l 0 l y y y l z z n a 6 8 D | { -.P 8 7 2 l y l l z z z z z z u ",
"> V A S 4.S G G m 5 8 6 4 8 I ..I 7 O : ; 2 q V J S R ! ! ( m b ",
"# F I F H H H H G 4 1 1 o 1 h P % O   + ; o > F I ^ H ^ >.>.^ 5 ",
"s / / ( S 4.3.-.t : ; 1 % K L K & * . X y 3 1 d 3.3.I S S H H r ",
"Y 4.! M c =.<.B w 5 p j X.0.e.e.0.O.[ p 3 0 w w B >.=.c Y / 1.M ",
"A ^ ! q v ! ~ ~ A ] t.B.S.K.K.K.J.G.A.e.} r q v ~ ~ R B w 1.1.B ",
"j / ,.q 6 r i g 8.V.I.Y.Y.!.!.!.~.!.!.L.D.8.h i i i i x 4 ^ I ^ ",
"~ 1.6.c 3 < L q.N.K.T.I.L.L.R.!.~.!.E.I.S.).q.k , , 3 0 4 I F g ",
";.5.5.w 0 y #.t.q.0.B.Z.Z.Z.J.L.J.H.D.Z.V.`.a.X.y l l l q -.-.e ",
"4 C e > , 2 r g r # ' 7.a.).V.Z.V.N.M.7.} L [ o.r 0 3 2 : 7 8 > ",
"M M M v 0 0 < , r $ X & 8.c.c.)._.).$.h y 0 y | g 2 , @ r = f t ",
"R ~ ~ v z l u p ] = @ @ [ w.c.)._.).[ 0 l l z z z l 3 , 1 j ( t ",
"4 : 1 2 9 9 0 0 y 0 l 0 i $._.V.].'.[ , o , 2 2 9 0 l 0 0 w w w ",
"o @ , < 2 , , 2 2 2 2 , L w.V.G.G.].8.& @ < , 2 ; ; 2 2 9 2 , , ",
"y u u z 3 ; o o l l u } t.N.Z.K.K.Z.N.w.] u z 0 ; o , 3 l z y < ",
"n z l l 9 2 o + 3 k %.u.N.V.J.R.Y.G.V.N.u.9.k 3 ; o ; 3 l l l l ",
"2 , , 2 o X % U O.8.j.].Z.J.T././.I.G.H.D.M.e.+.X.- % $ , 2 2 2 ",
"; ; 2 2 # - O.t.)._.D.K.U.T./. X|.Q.T.I.I.G.V.`.a.t.+.} f , , ; ",
"3 l z s X.w.k.c.`.Z.L.E./.{.}.%X#X{.!.!.R.L.D._.c.l.z.g.$.* ; , ",
"0 l u o.g.f.k.x.V.W.!./. X+X%X,X:X X~.Y.R.K.H._.x.l.f.k.i.%.y z ",
"4 K { j.l.k.z.`.G.E.~.}.-X;X,X2X2X#X{.!.Y.W.Z.`.).z.k.k.c.i.w w ",
"r *.7.).l.l.x.C.I.!.!.@X;X2X2X2X2X=X|.!.~.E.J.N.).z.l.k.z.a.>.5 ",
"Y i.j._.l.k._.D.T.!.!..X-X1X2X2X2X2X&X}.~.!.I.C.`.).z.l.).j.H r ",
"! &.9.).).).N.D.T.!.!.}.&X2X2X2X2X2X;X.X!.!.I.C.'.`.`._.a.%.,.m ",
"j |  .t.N.`.`.D.P.!.!.{.*X1X2X2X2X2X,XXX!.!.I.D.].'.'.M.8. .<.J ",
"^ ^ Q ] 8.m.`.C.K.!.!.^.+X,X2X2X2X2X;X.X!.!.I.].'.`.i.+.K S ^ V ",
") 2.2.T [ +.t.N.S.T.E.E.[.$X<X3X3X<X$X[.I.W.F.u.q.9.o.` Y F F f ",
"4.4.1.<.1.,.o.s.t.p.b.b.v.(.oXOXOXoX(.r.0.7.$.o. .| 1.1.H F I C ",
"e :.H I H I >.! s 7 $ . o 2 0 0 9 2 2 , , ; 4 d H 4.>.>.F k I 4 ",
"5 5 5 ! ! 5.V 4 : O       + ; , ; ; , < < 3 x 5 5 C 3.D h O O 7 ",
"B R W E ) ) ) E s @ X o , @ ; ; ; , 0 l 0 l m R W W T _ T Q M m ",
"q x c c c c N N w 5 2 9 0 3 ; 2 ; 2 2 2 9 9 w w c N M N m m v b "
};
