/* XPM */
static char *_e9c4c08f98e4d32ea34ac738b797ecfzneS8yP0EWug0OBg[] = {
/* columns rows colors chars-per-pixel */
"32 32 194 2 ",
"   c #000000",
".  c #04060A",
"X  c #07090E",
"o  c #080A0F",
"O  c #0A0C14",
"+  c #0B0F18",
"@  c #0E121D",
"#  c #26221D",
"$  c #111524",
"%  c #151B2D",
"&  c #1A1E2E",
"*  c #1D2129",
"=  c #1D2130",
"-  c #22242E",
";  c #2D302E",
":  c #242633",
">  c #252835",
",  c #2A2A33",
"<  c #272C38",
"1  c #2C2D3A",
"2  c #302F3A",
"3  c #2F3232",
"4  c #343136",
"5  c #35333C",
"6  c #3D3B3D",
"7  c #3B3B35",
"8  c #453B2C",
"9  c #483F3D",
"0  c #433B3B",
"q  c #514E2E",
"w  c #45453B",
"e  c #4E433F",
"r  c #4D4C39",
"t  c #434335",
"y  c #52493D",
"u  c #555337",
"i  c #59533C",
"p  c #615E39",
"a  c #69633C",
"s  c #3C3B42",
"d  c #323747",
"f  c #443E44",
"g  c #444142",
"h  c #4A4246",
"j  c #4F4749",
"k  c #4A4A4B",
"l  c #4F4946",
"z  c #564941",
"x  c #534C4A",
"c  c #5C4D43",
"v  c #4D5341",
"b  c #525640",
"n  c #5C534E",
"m  c #565744",
"M  c #434751",
"N  c #454958",
"B  c #5B5D56",
"V  c #6D5B45",
"C  c #6F5A48",
"Z  c #655345",
"A  c #625A52",
"S  c #6B5C55",
"D  c #635553",
"F  c #6A6541",
"G  c #676944",
"H  c #7B6C44",
"J  c #776846",
"K  c #747242",
"L  c #6B6459",
"P  c #726457",
"I  c #7B6A5D",
"U  c #766D5D",
"Y  c #4E5260",
"T  c #6D6C62",
"R  c #676262",
"E  c #7B7668",
"W  c #817A3E",
"Q  c #826F47",
"!  c #867447",
"~  c #8B7D43",
"^  c #827940",
"/  c #907E47",
"(  c #81725E",
")  c #826C61",
"_  c #857361",
"`  c #8E7666",
"'  c #897861",
"]  c #837D6A",
"[  c #977B6B",
"{  c #957F68",
"}  c #7E804C",
"|  c #8D853F",
" . c #948445",
".. c #958A42",
"X. c #9B8B46",
"o. c #9A9041",
"O. c #8A8C53",
"+. c #8D9156",
"@. c #848247",
"#. c #A39545",
"$. c #A99C44",
"%. c #ADA044",
"&. c #B3A645",
"*. c #B7AA4B",
"=. c #BAAF4C",
"-. c #B1A348",
";. c #A5A85C",
":. c #BAA951",
">. c #BDB450",
",. c #8F826B",
"<. c #9A856A",
"1. c #94856B",
"2. c #958B73",
"3. c #9A9275",
"4. c #A58F6C",
"5. c #B49B6D",
"6. c #AE9672",
"7. c #A19A7E",
"8. c #B19475",
"9. c #B59C75",
"0. c #BA9B78",
"q. c #ACB061",
"w. c #B1B360",
"e. c #B4B864",
"r. c #B6A67F",
"t. c #BDA27B",
"y. c #C5BF58",
"u. c #C1B557",
"i. c #C4AE64",
"p. c #C6A97C",
"a. c #CAAC7F",
"s. c #C2A47C",
"d. c #D0B379",
"f. c #C8B169",
"g. c #BCC066",
"h. c #C9C45C",
"j. c #CECC64",
"k. c #D2D166",
"l. c #D4D569",
"z. c #DADC6E",
"x. c #CFC673",
"c. c #D5C37A",
"v. c #DCDF71",
"b. c #A69C84",
"n. c #B49E81",
"m. c #A79F94",
"M. c #B1AD89",
"N. c #BCB58D",
"B. c #BAB19A",
"V. c #A5A6A7",
"C. c #B7B8B6",
"Z. c #CDAF80",
"A. c #D5B583",
"S. c #D9BD8A",
"D. c #C2AA91",
"F. c #C7BA95",
"G. c #C6B78D",
"H. c #DBC18C",
"J. c #DFD988",
"K. c #D1C397",
"L. c #DEC691",
"P. c #DEC798",
"I. c #CBC698",
"U. c #E1CC96",
"Y. c #E5CF9B",
"T. c #E0C798",
"R. c #E4D19C",
"E. c #E4DF91",
"W. c #DFC7A1",
"Q. c #C3C3B9",
"!. c #E1CBA4",
"~. c #E6D3A3",
"^. c #E8D5A0",
"/. c #EBDBA5",
"(. c #ECDEAC",
"). c #E7DAA2",
"_. c #EAD9B7",
"`. c #EFE1AB",
"'. c #EFE2B7",
"]. c #F1E4B4",
"[. c #F2E7BC",
"{. c #E2DDC3",
"}. c #E4DED5",
"|. c #EEE1CD",
" X c #F4EBCA",
".X c #F3E9C3",
"XX c #F6EED1",
"oX c #F0E5D1",
"OX c #F9F3DD",
"+X c #F7F1D7",
"@X c #F9F5E1",
"#X c #F7F0E6",
"$X c white",
"%X c #FCF9F4",
/* pixels */
"                                      X $ u ;.e.w.w.m p q .     ",
"                                    + b g.v.z.l.k.y.z.j.7 %     ",
"                                  O r j.+.v ;.l.l.v.z.h.#.3 +   ",
"                                O 4 =.O.7 v.v.+.+.q.v.y.&.a =   ",
"                                * | ~ ~ } m % & , : w #.&...%   ",
"8                             . u ^ H W % % % 4 C Z 0 p &.H ,   ",
"P.V                         + 1 1 7 , i % f > 0 C C V ~ &.F %   ",
"%XW.8                     @ Y }.V.N N E R D.n.& z C J  .H 7 +   ",
"@X%XR #                 . > L F._.|.oXOXOXb.d s & , 6 e 4 @     ",
"(.#X{.4.                @ <.T.XXOXOX[.].`./.t.) = $ O O O       ",
"U.!.OXm.X             . g R.'.C.OX.X[.].`.L.A.[ j %             ",
"3.S.~.Q.$             @ ,.(.t.M  X`.`.`.Y.H.A.[ I %         $ $ ",
"5 t.S.`.k O           - b._.n N $XXX/.R.S.A.A.8.S > O   . , ' % ",
"@ P A.U.M.$           -  Xa.1 M OX[.^.A.A.A.A.0.[ 2 @ @ g 9.6 % ",
". $ p.' N.E O       . % T x % 1 C.F.N.6.6.p.a.8.I 1 = n t.w a u ",
"  @ I 9.] I.*       O < < % % % % % % < L 9.s.S % 5 I <.J o.&.u ",
"    1 p.n K.A X . O @ 2.F.x % 1 T T 7.K.L.n ] U r.,._ 5.-.&.&.u ",
"    + ( <.k 9.$ b +.% F.+Xt.= V.@X].^.A.A.% r.B 5 I 9.A.>.u.&.u ",
"      : s.s { x @.G F 2.].~.6 V.].`.H.A.A.% r.5 Z.A.L./.h.=.&.u ",
"      @ D I g 6.% K e.k `./.B.B.`.`.A.A.A.% 6.6 A.A.R.E.k.&.&.u ",
"    . % 4 I 1 , W =.F : 1.Y. XXX`.`.t.P 5 % 6.P A.L.R.c.=.*.i.A ",
"    ; J , = 9  .W t = z 9 ] ].'.G.E > % % % 6.[ A.A.A.c.J.H.A.A ",
"    @ = 1 c e 1 A ` 5 y ! 4 s s % = 1 y ~ % 6._ A.d.u.x.).L.A.5 ",
"    . : z 4 : I A.8.h 4 X.H , & 4 c Q #.$.% 6.l i.u.k.J.R.S.p.$ ",
"      O @ $ n A.A.8.5 % r  .J Z ! #.&.&.$.% ` 7 &.*.y.f.A.A.S O ",
"          . % A j 5 : % % t ..#.#.#.#./ C 4 x c %.&.&.d.A.P @   ",
"            . @ $ 4 e $ $ % = , , , , , , : % h w $.:.A.n @     ",
"                . & = % % % % $ $ $ $ % % % % & > u :.I $       ",
"                      O % % % $ X X X O % % @ O & h 3 @         ",
"                    X X O O o O X X X @ $ $ @ X o $ @           ",
"                    X X X X X X X X X X X X X X X X             ",
"                      X X X X X X X X X X X X X X .             "
};
