/* XPM */
static char *_6d58f768e534cd8f995132bc70ba414WMbSclvktiI1f5Su[] = {
/* columns rows colors chars-per-pixel */
"32 32 208 2 ",
"   c #000000",
".  c #05060A",
"X  c #07090E",
"o  c #0B0C0F",
"O  c #0A0D14",
"+  c #0C0F18",
"@  c #0E111B",
"#  c #13151C",
"$  c #18181A",
"%  c #1F211E",
"&  c #2E2A1D",
"*  c #26241C",
"=  c #0F1420",
"-  c #121623",
";  c #151823",
":  c #151A2B",
">  c #1A1E2C",
",  c #1A1C26",
"<  c #191E30",
"1  c #1D212F",
"2  c #1E2027",
"3  c #1E2231",
"4  c #21242D",
"5  c #262A2E",
"6  c #2E302E",
"7  c #222533",
"8  c #262933",
"9  c #2C2C34",
"0  c #2D2D39",
"q  c #272C38",
"w  c #312F38",
"e  c #2E3234",
"r  c #343236",
"t  c #393636",
"y  c #3C3D34",
"u  c #34333B",
"i  c #3B373B",
"p  c #3C3A3D",
"a  c #353524",
"s  c #493E2D",
"d  c #433D3B",
"f  c #423F37",
"g  c #4B433C",
"h  c #4B4C3D",
"j  c #484638",
"k  c #534C3C",
"l  c #5A4F3F",
"z  c #4F5238",
"x  c #525137",
"c  c #5A563A",
"v  c #5A593A",
"b  c #44432D",
"n  c #64593F",
"m  c #65613A",
"M  c #6C673C",
"N  c #79723F",
"B  c #3C3B43",
"V  c #463F44",
"C  c #444243",
"Z  c #4E4A46",
"A  c #474548",
"S  c #534640",
"D  c #524B43",
"F  c #524C4A",
"G  c #5A4E4E",
"H  c #56514D",
"J  c #5B534C",
"K  c #575344",
"L  c #4D4F55",
"P  c #5D5550",
"I  c #5F5957",
"U  c #555453",
"Y  c #625A4D",
"T  c #655547",
"R  c #655C51",
"E  c #675854",
"W  c #656945",
"Q  c #6B6945",
"!  c #7A6C43",
"~  c #756148",
"^  c #737345",
"/  c #7A764A",
"(  c #686357",
")  c #71635A",
"_  c #766B5D",
"`  c #7E6E5D",
"'  c #786856",
"]  c #7D7458",
"[  c #5C5F69",
"{  c #6A6869",
"}  c #706E66",
"|  c #7F6960",
" . c #787261",
".. c #737477",
"X. c #806F46",
"o. c #817542",
"O. c #847A42",
"+. c #8D7C46",
"@. c #81725D",
"#. c #836F61",
"$. c #857261",
"%. c #847964",
"&. c #8C7A64",
"*. c #847B6E",
"=. c #8A7564",
"-. c #957E68",
";. c #8C8341",
":. c #8B8A4C",
">. c #938A44",
",. c #9A8A46",
"<. c #8A8D56",
"1. c #909455",
"2. c #9D9B51",
"3. c #AA9D45",
"4. c #A39848",
"5. c #A19155",
"6. c #9EA15A",
"7. c #AFA447",
"8. c #B3A646",
"9. c #B3A54B",
"0. c #B5AA48",
"q. c #BBB14D",
"w. c #AAAD5E",
"e. c #A5A85C",
"r. c #BEB453",
"t. c #BEBC5D",
"y. c #BCAD55",
"u. c #85806C",
"i. c #9B866C",
"p. c #8D8672",
"a. c #948A77",
"s. c #9F957C",
"d. c #A08B6B",
"f. c #AA936D",
"g. c #A38C71",
"h. c #A98E71",
"j. c #AC9471",
"k. c #AA9977",
"l. c #B69C75",
"z. c #B69976",
"x. c #B5B862",
"c. c #BAA072",
"v. c #BEA279",
"b. c #B7A37D",
"n. c #C2B659",
"m. c #C0B752",
"M. c #C8B566",
"N. c #C2A47B",
"B. c #C8AA7E",
"V. c #CEB374",
"C. c #D2B57E",
"Z. c #C6AF68",
"A. c #BEC166",
"S. c #C9C55D",
"D. c #CCCA62",
"F. c #C8C766",
"G. c #D2CF69",
"H. c #D6D76B",
"J. c #D5C37C",
"K. c #D4CB75",
"L. c #9E9E99",
"P. c #A19E9E",
"I. c #A79D82",
"U. c #ACA381",
"Y. c #AFA788",
"T. c #B6A181",
"R. c #B8AD89",
"E. c #BEB28E",
"W. c #BAB09D",
"Q. c #A4A195",
"!. c #A5A5A4",
"~. c #C8AF83",
"^. c #D4B583",
"/. c #D7B986",
"(. c #D9BD8A",
"). c #C2B797",
"_. c #C4BEA8",
"`. c #DCC38E",
"'. c #DFD58E",
"]. c #DDC593",
"[. c #DECA94",
"{. c #D1CB9D",
"}. c #E2CD99",
"|. c #E4D698",
" X c #D9CCA6",
".X c #D7CAA7",
"XX c #C8C0B4",
"oX c #D4CBB8",
"OX c #DFD1B3",
"+X c #C9C3A9",
"@X c #E3D3A4",
"#X c #EAD9A5",
"$X c #E8D9A9",
"%X c #E6D4B2",
"&X c #EFE2AD",
"*X c #F0E3AF",
"=X c #EDE3BB",
"-X c #F1E6BB",
";X c #F0E4B7",
":X c #CDCBC3",
">X c #DBD6C6",
",X c #F4EBCD",
"<X c #F4EAC4",
"1X c #EBE5D4",
"2X c #F4ECD8",
"3X c #F6EFD2",
"4X c #F5EFE5",
"5X c #F9F5E3",
/* pixels */
"          . + - - - @ .                                         ",
"      . & a y W W W z * X                                       ",
"      # x 2.e.t.F.F.x.1.v % .                                   ",
"    O e O.D.H.G.H.D.w.1.6.^ % .                                 ",
"    , v 7.S.H.x.w.x.A.<./ 2.v #                                 ",
"    7 ;.8.4.^ K h h W / ^ >.O.b o                               ",
"    9 O.3.M d S g 8 3 e x o.o.m *                             & ",
"    4 ! 3.! T T T u 8 0 r c j j 9 # .                       s k.",
"    # k +.+.~ T g C p.*.I I A { P...4 .                   & T.2X",
"    . 2 g l d r 9 B { W.>XoXXXoX.Xa.B @                 $ P 1X5X",
"      . # # # : u #.T.@X;X-X,X2X,X.Xg.i .               ' _.4X=X",
"            . 3 G g.^.|.*X;X<X3X>XoX@X .$             . a.1X%X}.",
"  - -       . 0 | h./.].#X&X&X-XQ.p.].U.t .           @ !.%X].k.",
". 1 ' 4 .   + u ` z.^./.].#X;X5X!.U Y.).F o         O p {.].N.C ",
". > A d.t @ ; V i.N.^.^.^.].$X,XL.B %. X} O         = a.[./.` ; ",
". x m K j.Z 7 B =.z.B.v.z.b.)._...7 p ( B O       X ( Y.i.N.8 . ",
". c 8.>./ -.E 0 0 #.v.i.H 7 < < : : : 7 q ; .     ; U.p.j.@.$   ",
". c 8.8.9.f.&.i.k. ._ %.].E.p.} L 7 p a.I.p + . X Z R.) l.p .   ",
". c 8.m.n.^.j.) C  .%.J ^.`.#X<X:X[ _ OX.XU W W 5 &.P &.@.$     ",
". c 8.q.G.#X`.^.h.J %.J ^./.}.&X+X..s.$XR.] Q ^ Y ` F h.u .     ",
". c 0.0.G.|.}.^.j.Y ` F B.~.[.&X X)..X#X*.<.:.y @.H ) E ,       ",
". R Z.y.n.J.[.`.v.$.` 3 C @.~.@X;X,X%Xk.Z h >.;.j u E p 5 O     ",
". Y ^.`.'.J.C.^.N.i.` 1 8 7 C u.E..Xs.Y S r j Q / l 9 8 c 6     ",
". u ^.[.|.K.M.V.c.=.` f o.k r 7 8 u p Q n d _ $.Z d S i 7 @     ",
"  , l.(.[.K.D.r.5.Y ' j 3.,.! l t r n O.h p &.B.d.C 9 d 4 .     ",
"  O J v.^.M.r.0.>.D P j 4.3.3.,.X.! o.c 8 q ) j.l.R , O O       ",
"    # J l.V.0.3.o.Z p i T ! o.o.o.N k 7 : 8 u i C > .           ",
"      # F c.9.N i w > 7 7 4 4 4 4 1 > : ; 9 w ; O .             ",
"        # K / j 1 - : : : = @ @ = : : : : - # X                 ",
"          @ 5 9 # O @ : - O X X O @ - - + .                     ",
"            O + X O O @ + O X X X X O O X X                     ",
"              X X X X X X X X X X X X X X .                     "
};
