/* XPM */
static char *result[] = {
/* columns rows colors chars-per-pixel */
"32 32 201 2 ",
"   c #07010D",
".  c #08060F",
"X  c #0B0114",
"o  c #0E001C",
"O  c #0E091C",
"+  c #0B0817",
"@  c #11001D",
"#  c #15051F",
"$  c #130024",
"%  c #1C0025",
"&  c #130A25",
"*  c #16012A",
"=  c #1A002C",
"-  c #160A2A",
";  c #1C0A2C",
":  c #141123",
">  c #16142C",
",  c #1B152D",
"<  c #161A2D",
"1  c #1C1B2C",
"2  c #1D0031",
"3  c #1E0C31",
"4  c #1F1532",
"5  c #23002C",
"6  c #2B002D",
"7  c #220A2E",
"8  c #200027",
"9  c #34002E",
"0  c #21172F",
"q  c #22192E",
"w  c #240033",
"e  c #2B0034",
"r  c #230B31",
"t  c #2A0933",
"y  c #320033",
"u  c #300E36",
"i  c #221331",
"p  c #291236",
"a  c #251D32",
"s  c #281936",
"d  c #321A39",
"f  c #321C33",
"g  c #1D2232",
"h  c #232432",
"j  c #2A2232",
"k  c #2C2B34",
"l  c #2F2C39",
"z  c #342C35",
"x  c #312D39",
"c  c #302438",
"v  c #343235",
"b  c #3B3637",
"n  c #343339",
"m  c #3B333E",
"M  c #3E3A3A",
"N  c #36383F",
"B  c #443F35",
"V  c #443D3A",
"C  c #434336",
"Z  c #4C4B36",
"A  c #454438",
"S  c #4A413C",
"D  c #4B4D3C",
"F  c #524B3C",
"G  c #50463F",
"H  c #53563F",
"J  c #5A543B",
"K  c #5F5D3A",
"L  c #635D3C",
"P  c #6B643D",
"I  c #362840",
"U  c #363A45",
"Y  c #3C3C42",
"T  c #3D3644",
"R  c #423B42",
"E  c #4B3D44",
"W  c #503745",
"Q  c #5A3A50",
"!  c #454243",
"~  c #494444",
"^  c #42444B",
"/  c #4E4B4A",
"(  c #534A49",
")  c #584A49",
"_  c #59524D",
"`  c #595745",
"'  c #5B5351",
"]  c #5B5757",
"[  c #6A5945",
"{  c #60564D",
"}  c #635A4E",
"|  c #625C53",
" . c #6B5F54",
".. c #655B5B",
"X. c #615351",
"o. c #5F6040",
"O. c #5E6059",
"+. c #6C6346",
"@. c #746444",
"#. c #7C7242",
"$. c #7B7C4C",
"%. c #7B7648",
"&. c #6A6359",
"*. c #716257",
"=. c #736B5C",
"-. c #7C6C5C",
";. c #74635A",
":. c #666767",
">. c #716C61",
",. c #7A7467",
"<. c #716F70",
"1. c #797677",
"2. c #827543",
"3. c #8B7C45",
"4. c #806C5F",
"5. c #82725D",
"6. c #8B7B64",
"7. c #877C6E",
"8. c #917C65",
"9. c #957C6A",
"0. c #827F7C",
"q. c #847D74",
"w. c #888140",
"e. c #948546",
"r. c #9D9242",
"t. c #8D8D51",
"y. c #9D8B5F",
"u. c #979956",
"i. c #A19345",
"p. c #A6984C",
"a. c #AEA145",
"s. c #B6AA49",
"d. c #B8AA4F",
"f. c #B3A746",
"g. c #A5A358",
"h. c #B6A650",
"j. c #AFB05B",
"k. c #BFB553",
"l. c #82806C",
"z. c #9A846A",
"x. c #95886D",
"c. c #85827F",
"v. c #968C75",
"b. c #9F9174",
"n. c #A3866F",
"m. c #AD9374",
"M. c #B59A77",
"N. c #A79264",
"B. c #B6B760",
"V. c #BCA37A",
"C. c #C0AD5C",
"Z. c #C3B95A",
"A. c #C8AF6D",
"S. c #CAB56A",
"D. c #C7A97E",
"F. c #D2BB7B",
"G. c #C7C45E",
"H. c #CDCE69",
"J. c #CCC864",
"K. c #CED06C",
"L. c #D4D56A",
"P. c #D6C97D",
"I. c #D0C072",
"U. c #797C86",
"Y. c #9A8D8A",
"T. c #A09F9F",
"R. c #A69C84",
"E. c #A6A084",
"W. c #B3A788",
"Q. c #BDB28C",
"!. c #C9AD80",
"~. c #CFB183",
"^. c #C6B48F",
"/. c #D5B683",
"(. c #DABE8B",
"). c #D4BB8A",
"_. c #C1B691",
"`. c #D0BD92",
"'. c #C6B8A3",
"]. c #D9C487",
"[. c #DDC692",
"{. c #D9C996",
"}. c #E4CE9A",
"|. c #E2DB91",
" X c #CCC2A9",
".X c #DBCCA6",
"XX c #DED1A6",
"oX c #D2CAB0",
"OX c #DCD2B8",
"+X c #EEDFAB",
"@X c #ECDBA7",
"#X c #E3D6B5",
"$X c #E5DBBD",
"%X c #EFE2AE",
"&X c #F1E4B5",
"*X c #D8D0C1",
"=X c #F3E9C6",
"-X c #EEE8D8",
";X c #F4EDD2",
":X c #F7F0DE",
">X c #FBF7EA",
/* pixels */
"e w w 6 e 6 e y y 9 9 9 9 y w % $ * w w w e 6 6 6 e y y y 9 9 9 ",
"$ $ * * = = 2 w t 6 B L D n > o o X o $ * * * = = 2 w e y 6 e w ",
"X @ @ @ $ * $ $ - j w.L.L.L.K.o.:       $ @ @ $ $ * $ % 2 * * * ",
"$ 5 8 % $ = = $ > P Z.L.H.G.L.H.H .   @ w 5 $ $ 2 = $ @ $ $ $ @ ",
"w w 2 2 e e y t z r.r.t.$.g.B.u.j., w w w 2 2 w e e e w 2 w e e ",
"$ * = = = 2 e r B i.J v k k t.#.g.j % * * * = = w e e 2 w e e e ",
"% 5 w 5 $ $ $ - V e.@.[ ! g H +.2.1 # % w w = $ $ $ % 2 ; W $ $ ",
"y y 9 e = $ $ = i S J V v g C A F q 6 y y y e 5 $ $ = e ) M.@ @ ",
"w 2 2 w w w e e w - > g ..1.<.<.c.1.s e 2 2 2 w w e e Q '.q.o $ ",
"= * $ $ $ = 2 2 * $ : Y 7.'.oX'.OX X.., * * $ $ 2 2 d Y.-X:.X $ ",
"= w w w w 5 % $ $ o < ;.m.XX&X=X:X;X_.E w w w e w r ..*X$X&.X X ",
"w w e e e e e 5 $ & l z.~.}.+X&X=X0.`.7.r e e e e u 0.#X^.Y $ $ ",
"$ $ $ % = * w w w 3 E n./.).}.&X>X^ m.R.q $ * = 2 c E.[.6.p 2 w ",
"$ @ $ > , a * $ = > X.m././.].@X;XU ..W.T % % * - ] {.V.R = $ $ ",
"6 6 9 < g &.z $ w , T 8.M.z.=.,.1.g g U s 6 y 5 1 7.b.5.f e 5 % ",
"y y 6 k k ! 5.x ; 3 l z./.).v.^ U g h >.] r w w U Q.8.) t w e e ",
"= $ $ C Z r.%.-.Y g g -.m.D.[.@X;XU.^ {.<.a ` > =.6.5.j * = * * ",
"@ $ % C Z s.h.N.6.x.=./ -.D./.}.&XT.v.XX&.` $.C z._ { O $ $ $ $ ",
"= w e C Z s.Z.F.V.&.>.| n -.m.).%XOX#XW.R %.2.` / _ c 7 $ @ $ $ ",
"e w e S D s.Z.|.[./.' ' l k v ,.Q.OXQ._ 3 z #.P b V v f e 5 6 e ",
"$ = * ~ ` k.S.P.[./.-.{ G [ S v ~ >.&.b , x  .+.G V v s w w w 2 ",
"$ $ @ ! ( /.P.F.F./.9.} J e.3.@.A b L F , V m.M.( x a ; = = * $ ",
"6 e 5 h n D.[.P.S.A.*.{ F e.a.i.3.#.P j 7 x *.6.( ; & @ $ $ $ $ ",
"e e w 3 i 6.F.I.Z.d.R ( B @.2.3.%.P z r r c l c t e 6 w % = 2 w ",
"$ $ = * * T z.A.d.r.( l h k x z v h < $ & 4 , = = w w 2 w w w w ",
"% 8 w w $ & V y.p.J l > < > & & & < > ; 8 w % $ $ % * * $ $ * * ",
"y y y e 5 % ; V ( b : & < > - ; ; < 4 t y y e e $ $ 5 e = $ o o ",
"e e e w e e e t 4 , & & > ; 7 t t i i r 2 e e e e e y e * o o $ ",
"% $ * $ $ $ = 2 % & O O & - 3 3 3 - - - $ * $ $ = * 2 * o X X @ ",
"% % 8 % 8 8 % $ X X . . + o & - & $ $ % = = 8 8 % % $ $ X X X X ",
"w w e e e e e 6 @ X X @ $ $ $ @ $ $ w w e e e e e y 6 5 5 5 5 5 ",
"= 2 2 w 2 2 e e w = = = w = * $ @ $ = = * 2 w 2 2 e e e w w w e "
};
