/* XPM */
static char *d234847bd12c4d8ec5fdc1d55fdf897aNDKlq69FPaF88iMw[] = {
/* columns rows colors chars-per-pixel */
"32 32 196 2 ",
"   c #000000",
".  c #05060A",
"X  c #07090E",
"o  c #0A0B0D",
"O  c #17140F",
"+  c #0A0C13",
"@  c #0C0F18",
"#  c #0F1017",
"$  c #0E111B",
"%  c #121215",
"&  c #13141A",
"*  c #16191C",
"=  c #1C1A1D",
"-  c #181819",
";  c #201C17",
":  c #1F211E",
">  c #26221C",
",  c #282219",
"<  c #131622",
"1  c #1B1D24",
"2  c #141929",
"3  c #191E2E",
"4  c #151A27",
"5  c #1E212D",
"6  c #1F2025",
"7  c #1E2332",
"8  c #222226",
"9  c #22232C",
"0  c #2A2B2C",
"q  c #282829",
"w  c #31332A",
"e  c #222531",
"r  c #242834",
"t  c #2A2B32",
"y  c #2C2E3A",
"u  c #252B3B",
"i  c #302D33",
"p  c #323233",
"a  c #3A3634",
"s  c #39363B",
"d  c #3C3A3C",
"f  c #373538",
"g  c #443E3A",
"h  c #413A33",
"j  c #444436",
"k  c #494936",
"l  c #4B443C",
"z  c #48473E",
"x  c #594D3A",
"c  c #574D3E",
"v  c #5C533E",
"b  c #645E3D",
"n  c #5F633D",
"m  c #6B653C",
"M  c #363A45",
"N  c #403C41",
"B  c #454344",
"V  c #4C4544",
"C  c #4E4847",
"Z  c #44474E",
"A  c #4E4C4A",
"S  c #544C41",
"D  c #5B4E41",
"F  c #504749",
"G  c #544D4A",
"H  c #575144",
"J  c #5C5342",
"K  c #5C524C",
"L  c #59564B",
"P  c #4C505E",
"I  c #5A5551",
"U  c #555758",
"Y  c #625748",
"T  c #665952",
"R  c #5F6241",
"E  c #626443",
"W  c #6F6242",
"Q  c #6B6049",
"!  c #756942",
"~  c #7F6D47",
"^  c #717449",
"/  c #7D7944",
"(  c #6C6055",
")  c #6A665B",
"_  c #706057",
"`  c #746B54",
"'  c #7B6C5B",
"]  c #75685A",
"[  c #776F64",
"{  c #7B7564",
"}  c #75746C",
"|  c #6C6E70",
" . c #737473",
".. c #827A3E",
"X. c #877A43",
"o. c #827659",
"O. c #867561",
"+. c #8A7764",
"@. c #8D7964",
"#. c #8A7E69",
"$. c #867D69",
"%. c #947D68",
"&. c #7F824F",
"*. c #88844B",
"=. c #928544",
"-. c #978949",
";. c #9D9243",
":. c #979247",
">. c #919055",
",. c #AA9B51",
"<. c #A79945",
"1. c #9FA158",
"2. c #ADA145",
"3. c #ADA14C",
"4. c #B4A746",
"5. c #B5A847",
"6. c #B9AA4F",
"7. c #A6A555",
"8. c #B5A951",
"9. c #AEB05F",
"0. c #BDB959",
"q. c #8C856D",
"w. c #9D886B",
"e. c #968469",
"r. c #8B8673",
"t. c #838179",
"y. c #978A73",
"u. c #9E9378",
"i. c #A48C6D",
"p. c #A08A68",
"a. c #A59063",
"s. c #AA9271",
"d. c #AF9A76",
"f. c #B69B77",
"g. c #BA9E79",
"h. c #B59976",
"j. c #BEAA69",
"k. c #B4B763",
"l. c #BAA47C",
"z. c #C3B95A",
"x. c #C1B558",
"c. c #C4AE64",
"v. c #CBBF65",
"b. c #C3A57C",
"n. c #CDB875",
"m. c #D3B77F",
"M. c #C8C55D",
"N. c #CAC965",
"B. c #CFD26C",
"V. c #D5D56A",
"C. c #D7D96D",
"Z. c #D9DB6E",
"A. c #D2D167",
"S. c #D5C67C",
"D. c #DCDE71",
"F. c #8E8E8C",
"G. c #9C958B",
"H. c #9D9D96",
"J. c #A79982",
"K. c #AFA884",
"L. c #BAAB87",
"P. c #A7A092",
"I. c #B8B29A",
"U. c #BEB6A7",
"Y. c #C7AC81",
"T. c #CEB283",
"R. c #D2B481",
"E. c #D6BA89",
"W. c #D5B883",
"Q. c #C6B793",
"!. c #DBC28E",
"~. c #DACA88",
"^. c #DDD386",
"/. c #DDC492",
"(. c #DFC993",
"). c #DAC698",
"_. c #E0C794",
"`. c #E7D39F",
"'. c #CDC0A2",
"]. c #CCC4AC",
"[. c #CEC9B7",
"{. c #D3CBB3",
"}. c #D9CCBA",
"|. c #E5D4A4",
" X c #E8D9A8",
".X c #E7DAB6",
"XX c #EFE2AE",
"oX c #EEE1B1",
"OX c #ECE2BF",
"+X c #F1E6BA",
"@X c #DBD4C5",
"#X c #E4DCC1",
"$X c #EDE2C8",
"%X c #F1E6C0",
"&X c #F1E9CC",
"*X c #ECE6D2",
/* pixels */
"                                                                ",
"                    $ 5 p j 0 @                                 ",
"                . 4 E V.M.5.2.m -                               ",
"                * E N.V.A.C.0.;.k +                             ",
"                q N.D.M.C.B.&.m b *                             ",
"                1 1.D.7.D.k.z m W 1                             ",
"                $ R C.^ Z.9.v ~ v =                             ",
"                  w 0.*.N.7.l D p +                             ",
"                  $ ^ *.1.*.7 3 $                               ",
"                + e I $.` o.B < .                               ",
"              . 9 K J.U.P.'.J.d &                               ",
"              $ T @.y.].{.$XQ.O.i .                             ",
"            . 9 %.T.|.#X} %X/.g.G @                       , , , ",
"            + V d.E.oX[.Z OX`.E.+.8                   O l #.x x ",
"            & ( b.(.%XH.M ]. X/.s.s .               > [ }.G.> ; ",
"$ q .       1 ' s.#.F.P u | r.w.i.B +             = $.@X*XU     ",
"3 G h .     1 +.f.{ B 7 3 y U y.p.B +           o I '..XL.8     ",
"p J ` g % . < _ Y.|.I.Z r  .].).h.G +         o B K./.d.H o     ",
"k =.*.o.T a 9 K Y.`.+Xt.M I.oX_.g.V o   X   . d q.l.d.l +       ",
"k 4.8.a.@.( ) I s.(.XX[. ..X|.T.O.q . : n * p q.u.w.S %         ",
"k 5.z.n.l.e.q.A G L.XX&X{.+X).O.p + - / E d ] { e.J %           ",
"k 4.z.^.!.l.e.V d K u..XoXQ.) d < . - :.k V T ] K -             ",
"S c.x.S.!.T.s.C Y D V ) r.G S c 1 X 6 Y ..z F V =               ",
"C W.~.S.m.R.g.G / =.W l d D X.! = + V @.J S d a -               ",
"t T.(.^.v.j.i.C X.2.<.X.! =.;.v % $ T b.' p g t *               ",
"# O.W.n.x.3.o.N J X.=.=.X.X.v 9 $ 9 s ' ' 3 9 1 .               ",
"  0 w.n.6.;.Q y e r 0 q 0 r 5 @ X 1 1 1 6 X . .                 ",
"  . a a.,.b t & 2 < X X X + 2 +   . .                           ",
"    . 0 H f & + 2 2 X X X + 2 @                                 ",
"      . < $ o + @ @ X X + $ < < X                               ",
"          . X X X X X X X X X X .                               ",
"            . . X X X X X . .                                   "
};
