/* XPM */
static char *a7cce44d4af94635bc26ade42fcae73fuzFbr0ucd3EkqjA5[] = {
/* columns rows colors chars-per-pixel */
"29 32 178 2 ",
"   c #000001",
".  c #050609",
"X  c #06080D",
"o  c #0B0B0E",
"O  c #0A0906",
"+  c #15120E",
"@  c #0B0D13",
"#  c #0F1113",
"$  c #0E111B",
"%  c #121314",
"&  c #191611",
"*  c #181917",
"=  c #13151B",
"-  c #17181F",
";  c #1A1C1B",
":  c #211D17",
">  c #121725",
",  c #151926",
"<  c #1C1C23",
"1  c #151928",
"2  c #191D2B",
"3  c #201F25",
"4  c #1F2027",
"5  c #232224",
"6  c #282A22",
"7  c #24242B",
"8  c #2E2B2B",
"9  c #302E2D",
"0  c #35322A",
"q  c #3A3D2C",
"w  c #38362A",
"e  c #2A2C33",
"r  c #322F35",
"t  c #353135",
"y  c #3A3637",
"u  c #353239",
"i  c #3A363A",
"p  c #3E383C",
"a  c #3F3E34",
"s  c #423C3C",
"d  c #483F3B",
"f  c #453E35",
"g  c #3C4030",
"h  c #43402E",
"j  c #444433",
"k  c #4F4B31",
"l  c #474239",
"z  c #4B423C",
"x  c #4F483E",
"c  c #504D36",
"v  c #4E5135",
"b  c #5A5937",
"n  c #585B3E",
"m  c #59533C",
"M  c #615C3B",
"N  c #5D603D",
"B  c #64623E",
"V  c #69653C",
"C  c #70663F",
"Z  c #79713E",
"A  c #443D42",
"S  c #4C4443",
"D  c #4D4844",
"F  c #4E494B",
"G  c #514644",
"H  c #534D44",
"J  c #514749",
"K  c #554C4B",
"L  c #584D4D",
"P  c #555042",
"I  c #5D5245",
"U  c #5B544A",
"Y  c #5D5A54",
"T  c #585959",
"R  c #525355",
"E  c #665B40",
"W  c #6A5945",
"Q  c #615646",
"!  c #705F46",
"~  c #625451",
"^  c #645A54",
"/  c #6C5C56",
"(  c #705E58",
")  c #6C6140",
"_  c #6A6B43",
"`  c #786546",
"'  c #726B40",
"]  c #786C42",
"[  c #747444",
"{  c #6D6559",
"}  c #69695B",
"|  c #726456",
" . c #796A56",
".. c #736359",
"X. c #756A5A",
"o. c #7E6B5E",
"O. c #7F715C",
"+. c #686662",
"@. c #766E63",
"#. c #827344",
"$. c #8E7C47",
"%. c #816D5F",
"&. c #836D62",
"*. c #877163",
"=. c #8C7466",
"-. c #8D7B64",
";. c #907668",
":. c #977B6B",
">. c #987F6B",
",. c #8F8846",
"<. c #8C8440",
"1. c #918841",
"2. c #9D8E45",
"3. c #958744",
"4. c #818552",
"5. c #8F9357",
"6. c #9C9C54",
"7. c #A09046",
"8. c #AB9E45",
"9. c #9FA25A",
"0. c #AEA045",
"q. c #ACA249",
"w. c #B4AC4F",
"e. c #B5AE50",
"r. c #B9B75B",
"t. c #BCB95A",
"y. c #978369",
"u. c #968672",
"i. c #9E9578",
"p. c #A08C6C",
"a. c #A88D72",
"s. c #A19C7D",
"d. c #B19876",
"f. c #B29678",
"g. c #B49878",
"h. c #B1B461",
"j. c #BABD64",
"k. c #BDA17D",
"l. c #B6A27A",
"z. c #C4BF5A",
"x. c #C3A57E",
"c. c #C7C763",
"v. c #CDCD65",
"b. c #D5D66A",
"n. c #D7D86C",
"m. c #9B9180",
"M. c #B8A482",
"N. c #BCAF99",
"B. c #B3A995",
"V. c #BCB6A2",
"C. c #CAAE85",
"Z. c #C0AA84",
"A. c #CCB187",
"S. c #CFB588",
"D. c #D5BB8E",
"F. c #D9BE8D",
"G. c #D4BD92",
"H. c #D5C193",
"J. c #DEC695",
"K. c #E1CB9E",
"L. c #D0C8AC",
"P. c #DACBAB",
"I. c #D3C6A6",
"U. c #DDD3B1",
"Y. c #E4D1A5",
"T. c #E8D7A7",
"R. c #E9D8AA",
"E. c #EDDEB3",
"W. c #F0E4BA",
"Q. c #EFE5C1",
"!. c #EDE4CE",
"~. c #F1E5C1",
"^. c #F2E8C6",
"/. c #F5EDCD",
"(. c #F4EBD0",
"). c #F7F1D7",
"_. c #F7F1D9",
"`. c #F8F2DA",
/* pixels */
"                                                          ",
"                                                          ",
"                                                          ",
"                      . ; g B N q # .                     ",
"                      * _ 4.5.j.6.j =                     ",
"O &                 % v h.9.h.z.q.#.w .                   ",
": O.Q +             ; _ c.v.n.e.1.Z h .                   ",
"o +.N.l             ; [ v.n.n.w.<.M 0                     ",
"X Y !.B.&           o q 6.r.t.,.B j ;                     ",
". D P.P.8             % j _ [ m x 9 #                     ",
"  ; p.H.} .           . e T R / @.F 4                     ",
"  . I l.s.5         . 3 ^ m.V.L.I.u.J @                   ",
"    9 y.i.H .       % s y.M.U.Q.R.k.o.< o                 ",
"    @ H y.{ 9 6 %   5 | x.J./.).E.S.a.A s 5 .             ",
"    . 8 -.~ U n q . t %.C.K.(.`.W.F.g.L K I 5 X           ",
"      = J F P ' b @ G >.D.E._.).W.J.x.^ J o...H 0 * .     ",
"    . 5 u H M V w X S :.D.R./.W.T.F.k./ K &.*.X.Y U $ .   ",
"    . < r D  . .t X i &.C.Y._.^.T.F.x./ ~ =.;.*.L X.1 X   ",
"      @ < S -.o.t . 8 / f.G.~.~.Y.A.f.L / ;.:.:./ | 1 X   ",
"        . < y i 7   = u &.d.G.H.Z.=.~ p ~ =.:.:.&.X.1 X   ",
"          . @ < =   @ 7 D ~ X.X.{ K G z S &.:.:.( | 1 X   ",
"                    = l ] ' ) E I W ` ! s ..:.:.K U 1 X   ",
"                    % f 3.8.8.8.8.7.$.W t K =.&.J 5 X     ",
"                    X 5 C 2.0.0.8.2.#.d - 7 ~ L 7 .       ",
"                      $ e a k c c l y - . . = < .         ",
"                      @ , = % = = 2 , X     . .           ",
"                      @ > $ X X @ > $ X .                 ",
"                    . @ @ @ X X @ @ @ X X .               ",
"                      . X X X X X X X X .                 ",
"                            . . . .                       ",
"                                                          ",
"                                                          "
};
