/* XPM */
static char *result[] = {
/* columns rows colors chars-per-pixel */
"32 32 194 2 ",
"   c #06000C",
".  c #0B0014",
"X  c #0E011C",
"o  c #11001E",
"O  c #18001F",
"+  c #130024",
"@  c #1C0025",
"#  c #130B26",
"$  c #16002A",
"%  c #1A002C",
"&  c #160B2A",
"*  c #1B0A2C",
"=  c #191027",
"-  c #151429",
";  c #1A142D",
":  c #16192D",
">  c #1B1B2D",
",  c #1D0131",
"<  c #1D0C31",
"1  c #1D1A31",
"2  c #1F1531",
"3  c #200027",
"4  c #23012C",
"5  c #2C002D",
"6  c #210C2E",
"7  c #34002E",
"8  c #221C2F",
"9  c #240133",
"0  c #2B0034",
"q  c #240B32",
"w  c #2A0A32",
"e  c #320033",
"r  c #241332",
"t  c #2A1433",
"y  c #231C31",
"u  c #291C36",
"i  c #2E1338",
"p  c #301D33",
"a  c #341D39",
"s  c #1D2030",
"d  c #252635",
"f  c #2A2434",
"g  c #2C2B33",
"h  c #2D243A",
"j  c #3A2E35",
"k  c #3C2F3D",
"l  c #34293A",
"z  c #2D3136",
"x  c #343135",
"c  c #33313B",
"v  c #3B363C",
"b  c #3F3D3D",
"n  c #29262C",
"m  c #411C3A",
"M  c #41373D",
"N  c #433C3B",
"B  c #483B39",
"V  c #4B443B",
"C  c #454136",
"Z  c #534B3D",
"A  c #50443E",
"S  c #565338",
"D  c #645B3E",
"F  c #66603A",
"G  c #746C3E",
"H  c #7F763E",
"J  c #3D3441",
"K  c #3D3841",
"L  c #403740",
"P  c #423B41",
"I  c #4A344A",
"U  c #494246",
"Y  c #4C4548",
"T  c #4A4841",
"R  c #504647",
"E  c #52474A",
"W  c #554A4A",
"Q  c #5A4D4E",
"!  c #594D45",
"~  c #5D5F43",
"^  c #5D524E",
"/  c #5C4D50",
"(  c #5C5652",
")  c #60574F",
"_  c #675744",
"`  c #705D45",
"'  c #625452",
"]  c #665B51",
"[  c #6A5B55",
"{  c #654756",
"}  c #676540",
"|  c #6C6341",
" . c #646A49",
".. c #7D6A47",
"X. c #6D724C",
"o. c #7B7444",
"O. c #7C7E4B",
"+. c #6E6155",
"@. c #696359",
"#. c #6B6859",
"$. c #75645A",
"%. c #7B675E",
"&. c #7D6B5D",
"*. c #715B60",
"=. c #6E6460",
"-. c #7E6960",
";. c #7D7865",
":. c #7A7566",
">. c #867D3F",
",. c #887A45",
"<. c #806F5E",
"1. c #82725F",
"2. c #846D62",
"3. c #8D7566",
"4. c #8F7A65",
"5. c #907668",
"6. c #977B6B",
"7. c #967F69",
"8. c #8E8242",
"9. c #888548",
"0. c #948446",
"q. c #9D8D46",
"w. c #948D46",
"e. c #9F9244",
"r. c #96914A",
"t. c #858853",
"y. c #9B9651",
"u. c #A69944",
"i. c #AFA145",
"p. c #B3A645",
"a. c #B6AC4B",
"s. c #AFAE5E",
"d. c #BBB555",
"f. c #8D806A",
"g. c #928168",
"h. c #9D846C",
"j. c #8B8177",
"k. c #978E78",
"l. c #A2866F",
"z. c #A58B70",
"x. c #AA8E72",
"c. c #A69778",
"v. c #B99C78",
"b. c #B69B78",
"n. c #ADB161",
"m. c #B5B863",
"M. c #C1BB57",
"N. c #C2A47C",
"B. c #C9AA7E",
"V. c #C9C45D",
"C. c #CBCB65",
"Z. c #D0CF65",
"A. c #D3D56B",
"S. c #D5D56A",
"D. c #DBDE70",
"F. c #8F8B85",
"G. c #9C8F8C",
"H. c #959185",
"J. c #989080",
"K. c #979695",
"L. c #BDA784",
"P. c #B4AD88",
"I. c #B5AC9B",
"U. c #CCAD80",
"Y. c #D4B586",
"T. c #D3B788",
"R. c #D2BA8C",
"E. c #D8BF8C",
"W. c #C6BFA6",
"Q. c #CAB7A3",
"!. c #D9C18F",
"~. c #DDC694",
"^. c #E1CA96",
"/. c #E4CE99",
"(. c #E5D29F",
"). c #DAC9A1",
"_. c #DBD0BB",
"`. c #ECDDAB",
"'. c #EAD9A4",
"]. c #E7D7B4",
"[. c #E7DEBF",
"{. c #E7DBB5",
"}. c #EEE1BB",
"|. c #EFE2B1",
" X c #F1E5BD",
".X c #F2E7B9",
"XX c #F5ECCA",
"oX c #F4EAC5",
"OX c #EEE7D8",
"+X c #F6EED5",
"@X c #F7F1D9",
"#X c #F9F4E2",
"$X c #FBF9ED",
"%X c #FDFBF2",
/* pixels */
"0 9 0 5 5 5 0 e e e 7 7 7 7 9 $ $ + 4 9 9 0 5 0 5 0 e e e 7 7 7 ",
"+ $ $ $ $ % , 9 0 0 5 0 9 * z X. .g - $ $ $ $ $ % , 0 0 e 5 0 9 ",
". o o X + + $ + $ % % % > t.m.X.D.C.O.> # o + + $ % + + , $ $ $ ",
"o m 4 @ + % % + X + $ # ~ A.O.n.S.a.w.Z t @ + + % @ + o + $ + X ",
"0 v.{ q 0 0 e e 9 % 4 r y.A.d.D.V.u.G G t 9 , 9 e e 0 9 % 9 0 0 ",
"$ F.Q.I , , 9 9 , 9 0 a s.D.Z.D.M.e.S F = $ % % 9 9 9 9 9 0 e 0 ",
"@ :.OXG.p o $ $ % $ $ - o.C.C.A.d.>.V C * 9 % + + $ $ % $ $ + + ",
"0 =.]._.*.+ + % , $ + X n F w.r.G S C p e e e 4 + + @ 9 + + X X ",
"9 J L.).j.q 0 0 9 $ + X & 1 @.C N ! ( u , , , 9 9 0 0 9 $ + X $ ",
"% * +.!.P.h , , $ + . . ; d H.K.H.I.J.K 2 $ + + , , % % o . . + ",
"% 9 k b.c.$.& + + X . X K %.c.W.[.[.L.%.k q 9 4 9 % o + o . . . ",
"9 9 t $.c.k.a 4 + o + : $.v.R.].XX}.T.x.Q 1 w 0 0 0 4 + o o + o ",
"+ + + M x.#.U v k 4 q J 6.U./.XX$X X^.N.-.^ Q u , 9 9 9 9 9 , 4 ",
"o o O t ( +.#.! ~ l * P 6.T.(.{.%XoX(.N.7.R ^ ] d # $ $ , % + + ",
"5 5 7 w v ] N } 9.B 6 Q z.Y. X#X#X X'.B.h.Y Q 5.7.) f q e 0 5 @ ",
"e e w g v b D H N 6 6 / l.T.|.oX.X`.^.B.7.Y ' 5.$.@.;.;.r 9 9 0 ",
"% + # ; c V U -.Q ; ; c z.U.`.%X+X/.^.B.b.' ] 6.6.6.P :.; $ $ $ ",
"+ + % & : z 4.v.[ ; & M 2.l.~..X@X`.^.N.3.( %.6.6.6.Q &.= $ + + ",
"4 4 e e 5 t K P d & o ; W 6.B.!.(.T.z.<.W P %.6.6.6.2.2.= o + + ",
"0 9 0 0 0 e w r f 6 4 6 f R &.g.f.7.^ N B M Q 5.6.6.-.<.r 4 5 e ",
"$ $ $ $ $ % , 9 q 9 9 r V D V V V N A _ ` V U 2.6.7.Q [ r 9 9 , ",
"o + + + + $ $ $ $ % % 1 _ u.q.q.q.0.0.,...R P %.6.3.W P < $ $ $ ",
"5 5 4 % + 4 @ + o X + & B ,.p.p.p.p.i.0.` B u E 2.[ M & + $ $ + ",
"0 0 9 9 9 0 e 0 4 % % q 8 V o.8.8.8.>.| V u * t J J t 4 @ % % 4 ",
"+ + $ $ $ % 9 9 , 9 9 0 ; s g j x v x g y * $ $ * q 9 , , 9 0 9 ",
"@ 3 0 , + + $ $ % + + $ - : # # # # - : * 4 @ + + $ $ $ + + $ $ ",
"e e e e 4 @ + 4 9 % + # - : & & * 6 1 : r w 0 9 @ + 9 0 $ + X X ",
"0 9 0 9 9 0 0 e 9 % X X & * w w w 4 w q , q q 0 0 5 e 0 $ X X + ",
"@ $ $ + + + % , @ X . . o & < < * & * & & & $ + $ % $ $ X . . X ",
"@ 3 @ @ 4 @ % + . .     . . + + + # + @ @ @ @ 4 @ % + + X . . . ",
"9 9 0 0 0 e e 5 o . . o + o X + + + 4 9 9 0 0 0 e e 0 5 4 4 5 @ ",
"$ % , 9 , % 9 0 9 % @ % 9 % $ $ o $ % % % , 9 , , 0 0 9 9 9 9 0 "
};
