/* XPM */
static char *result[] = {
/* columns rows colors chars-per-pixel */
"32 32 60 1 ",
"  c #1E0817",
". c #14071B",
"X c #18071A",
"o c #16081C",
"O c #1B0B1E",
"+ c #360C0F",
"@ c #3A0D0F",
"# c #240915",
"$ c #2C0C16",
"% c #220C1B",
"& c #2F0D19",
"* c #330D12",
"= c #3B0E10",
"- c #330F1C",
"; c #27111B",
": c #2F1219",
"> c #331013",
", c #3E1011",
"< c #1D0D20",
"1 c #1F1021",
"2 c #230F21",
"3 c #251222",
"4 c #2B1523",
"5 c #2D1924",
"6 c #2F1428",
"7 c #331624",
"8 c #331A26",
"9 c #391C26",
"0 c #321629",
"q c #351C29",
"w c #391E29",
"e c #372128",
"r c #3C232A",
"t c #44110E",
"y c #4D120D",
"u c #53140C",
"i c #59160C",
"p c #57180E",
"a c #5A190E",
"s c #400F10",
"d c #421111",
"f c #4E1A14",
"g c #541C13",
"h c #572419",
"j c #612213",
"k c #401E27",
"l c #401F28",
"z c #432227",
"x c #43242A",
"c c #492529",
"v c #46292C",
"b c #4A2C2E",
"n c #502D2E",
"m c #4D302F",
"M c #4E2D30",
"N c #4F3130",
"B c #553331",
"V c #5B3632",
"C c #5E3A34",
"Z c #623D36",
/* pixels */
"XX%**>>>>*>>>>*****>>>>>>>>>: .X",
"O%gpyd,===t,ddsdddd,,,,dddtyuf%X",
"%fgy .......Oo.....o.......Xtat ",
"*pu*..<23483243344553;3311..#,p$",
"*t%.3eq6vZZB09VZZZZZZZZZCVx3..t:",
":,.3NBq0BZZCqqbZZZZZZCCCVVwq<.+$",
"$+.xZV9030q7979qqqeq85qexx8br.+#",
"$=.vZVk4<OO222%O<O<<oo.<8wbVb.+#",
"$@.bZZe<vZZZZZZZZZZMcBVwO3cVco*$",
"$@.bZZ8OrZZZZZVZZZZCCZZZo2bZv.=#",
"$=.bZZeOrZZZZCVZZZZZZZZZO8CZv.*#",
"$=.vZZqOvZZZZZZZZZZZZZZZ<8CZv.+$",
"++.bZZqObCZZZZZZZZZZZZZZ<7BZb.+#",
"$@.bZZeOmZZZZZZZZZZZZZZZ%7MCvO+$",
"*,.vZZqOVZZZZZZZZZZZZZZZ<79Bv.+$",
"*,.vZZqOZZZZZZZZZZZZZZZZO20Bx.s$",
"*=.xZB8%CZZZZZZZZZZZZZvqOqZZv.,&",
"*,.vZV9ONCZZZZZZZZZZZZMvOqZZvo=$",
"*=OxZB0OwvZZZZZZZZZZZZZZ<qZZM.=$",
"$=.cZVq<0wVZZZZZZZZZZZZZ<8ZZvO=&",
">@.bZZqoZMNZZZZZZZZZZZZZ<wZZMO=$",
"$+.vZZ8<BVVZZZZZZZZZZZZV<wZZxo=$",
"$*.bZZ5<4vZZZZZZZZZZZZm5.qZZx.=$",
"++<mZZv322588588888q883o4MZZv.=$",
":+<bZBvv6378rxxxxxr84%OOrNVCv.@$",
">+.eCN8xczcVZZZZZZZZb87exxbme.@$",
">,.<BBr0nVVZZZZZZZZZVvbVBNmm4.@*",
"+y .rNbqxCZZZCCZZZZZCVVVbbmeo%y*",
";ai*.....X...OOOOOO..oo.....*yi$",
"%giu### #####------&#### # #upu#",
"X#>yuyyyyyuuuiiiiiiiiuyyyyyujh%X",
"...#$$$$$$$$#$$$-$$$$$#$$$$-:;oX"
};
