/* XPM */
static char *result[] = {
/* columns rows colors chars-per-pixel */
"32 32 88 1 ",
"  c #05000C",
". c #070012",
"X c #090015",
"o c #0C001C",
"O c #11001D",
"+ c #0E0023",
"@ c #05002C",
"# c #0E0029",
"$ c #120024",
"% c #180025",
"& c #13002C",
"* c #1B002C",
"= c #070030",
"- c #0C0034",
"; c #03003D",
": c #0C003D",
"> c #160031",
", c #1C0033",
"< c #15003B",
"1 c #1D003C",
"2 c #240027",
"3 c #24002D",
"4 c #29002E",
"5 c #230034",
"6 c #2A0033",
"7 c #22003C",
"8 c #330034",
"9 c #694B3F",
"0 c #74523E",
"q c #000545",
"w c #0D0041",
"e c #000842",
"r c #130042",
"t c #190041",
"y c #001944",
"u c #1E2345",
"i c #2B2A47",
"p c #273D63",
"a c #473E42",
"s c #48384A",
"d c #523A49",
"f c #3C4F72",
"g c #484C4E",
"h c #5E4041",
"j c #644740",
"k c #734344",
"l c #7D4541",
"z c #78634B",
"x c #6D6652",
"c c #7A6F53",
"v c #A3623D",
"b c #BB653D",
"n c #B26D39",
"m c #BC7438",
"M c #C25D3F",
"N c #CE7939",
"B c #944D40",
"V c #A35440",
"C c #B37E47",
"Z c #DE8438",
"A c #FE8A37",
"S c #FF8C3A",
"D c #F69235",
"F c #B5894C",
"G c #B7995A",
"H c #FF9744",
"J c #FF9E4B",
"K c #C4A15B",
"L c #FFA859",
"P c #E9BB5F",
"I c #FFCA64",
"U c #FFC073",
"Y c #5B6C88",
"T c #647591",
"R c #968A91",
"E c #AC8E8F",
"W c #99A2B4",
"Q c #DC9E8B",
"! c #FFCA82",
"~ c #FFD18B",
"^ c #FFD691",
"/ c #FFDD9B",
"( c #FFE5B3",
") c #FFE9BF",
"_ c #FFF1D7",
"` c #FFF7E7",
"' c #FFFAEF",
"] c white",
/* pixels */
"5,344446688886,$#$*,,54346688888",
"##-qq;wrrtt6,,#+oXo#-;;;q:r<t55,",
".#yxGI/PGGgy##oX.  .yxGGGGGGgy>#",
"O<j^//////!yoooo   oy~//////~a-o",
"5:n//UU)__my5575**5,yZ__(UU//015",
"$;F/UmifEkyy5,>>,*&&yykRpaZ!/z76",
"%:G/UyVLLLBy&++ooo$$yVLLLBy!/c-#",
"6tG//yd000dyoo+$$%36yd000dy///@o",
"5wG/)y11<-=#&,666555><<<11y(/K@&",
"&;W_'y>,&oXX$>55,&**#&#$&>y`_T@+",
"*wyTpy$#+oX.oo#&#o$&,,5*,&yfTy@.",
",rnnnd63$o+$ooooo$*,756665knnb-o",
"#;NLLu,,5,,,*,++o+##$#&&>,iLLv<*",
"o#yyy;#$&&&#++oX..ooO$$&##eyyy#+",
"2488*+o+,643$OX..o32486*oo+*662*",
"8655>$oX*55553222388655,+oo*5555",
"&##&oo..+##&&&5565,&&##oX.Xo&#&#",
"o+&*OoXXo+###&*&&&#++$&%OooX####",
"*1yyyw53*$oO%ooooo$*558645qyyy&$",
",rj/Py66633533&o#+*,556556yI/a54",
"$;n//y,,555,&&$oX.o#&#&&>,y//0<>",
"o;G//y#&&&>&##+oX.Xo$o+##&G//c-#",
"31I/!y*$o+##oOOoXo$34*$$**y~/c-+",
"5r//Uyt<:;:,*3*&*3561:r:rty!/c<*",
"$;P/~ZnFGGgy,>&&&&$$yxGGCnD^/c1,",
"%:W///////!y&#+++o$&y~///////T-&",
"6tf'/////!myoo$*3366yZ!/////'p@o",
"6wiyyQQ]fyyi+*666665syyY]QQyys@#",
"$;BMHALLLSMuo&,*>&&$iMHLLLAJMl@o",
"%,yd00000huy .+#+o%%yij00000dyXX",
",5771775#@@$%o+++$*,<171777,<53*",
"&&>,>>55,&*&5&##o#&>&>,>,555,,,5"
};
