/* XPM */
static char *result[] = {
/* columns rows colors chars-per-pixel */
"32 32 198 2 ",
"   c #05000B",
".  c #08010F",
"X  c #0B0014",
"o  c #0E001C",
"O  c #11001E",
"+  c #18001F",
"@  c #130024",
"#  c #1C0126",
"$  c #130A25",
"%  c #190926",
"&  c #16012A",
"*  c #1A002D",
"=  c #160A2A",
"-  c #1B0B2C",
";  c #141124",
":  c #16152D",
">  c #1C132D",
",  c #161B2E",
"<  c #1B1A2E",
"1  c #1D0031",
"2  c #1D0B31",
"3  c #1E1931",
"4  c #23002C",
"5  c #2B002D",
"6  c #210A2D",
"7  c #2B092E",
"8  c #200027",
"9  c #34002E",
"0  c #231B2F",
"q  c #21102F",
"w  c #240033",
"e  c #2B0034",
"r  c #240B32",
"t  c #290A32",
"y  c #320033",
"u  c #300E35",
"i  c #221432",
"p  c #2A1332",
"a  c #231B32",
"s  c #2D1A35",
"d  c #361A36",
"f  c #1D2232",
"g  c #26232F",
"h  c #232433",
"j  c #2B2234",
"k  c #2C2B34",
"l  c #2D2C38",
"z  c #332C35",
"x  c #322E3A",
"c  c #342638",
"v  c #343336",
"b  c #3B3637",
"n  c #35323A",
"m  c #3C393C",
"M  c #38363E",
"N  c #423F35",
"B  c #443C3B",
"V  c #40313F",
"C  c #434336",
"Z  c #4C4B36",
"A  c #454438",
"S  c #4B413D",
"D  c #4B4D3C",
"F  c #524B3C",
"G  c #50463F",
"H  c #5A543B",
"J  c #5A5A3C",
"K  c #635D3C",
"L  c #6B643D",
"P  c #372841",
"I  c #363A45",
"U  c #3E3647",
"Y  c #423C42",
"T  c #59394C",
"R  c #454243",
"E  c #494444",
"W  c #42444B",
"Q  c #4E4B4A",
"!  c #534A49",
"~  c #534F44",
"^  c #59524D",
"/  c #565643",
"(  c #5B5351",
")  c #5B5757",
"_  c #6A5945",
"`  c #61564E",
"'  c #635A4E",
"]  c #6E4454",
"[  c #625C53",
"{  c #6B5F54",
"}  c #66585A",
"|  c #5F6040",
" . c #5E6059",
".. c #6C6346",
"X. c #746444",
"o. c #7C7242",
"O. c #7B7C4C",
"+. c #7A7647",
"@. c #6A6359",
"#. c #716257",
"$. c #736B5C",
"%. c #7C6C5C",
"&. c #74635A",
"*. c #666767",
"=. c #716C61",
"-. c #7A7467",
";. c #716F70",
":. c #797676",
">. c #827543",
",. c #8B7C45",
"<. c #806C5F",
"1. c #82725D",
"2. c #8B7B64",
"3. c #877C6D",
"4. c #917C65",
"5. c #957C6A",
"6. c #837F7D",
"7. c #857D74",
"8. c #888140",
"9. c #948546",
"0. c #9D9242",
"q. c #8D8D51",
"w. c #9D8B5F",
"e. c #979956",
"r. c #A19345",
"t. c #A6984C",
"y. c #AEA145",
"u. c #B6AA49",
"i. c #B8AA4F",
"p. c #B3A746",
"a. c #A5A358",
"s. c #B6A650",
"d. c #AFB05B",
"f. c #BFB553",
"g. c #82806C",
"h. c #9A846A",
"j. c #95886D",
"k. c #85827F",
"l. c #968C75",
"z. c #9F9174",
"x. c #A3866F",
"c. c #A79264",
"v. c #AD9374",
"b. c #B69A78",
"n. c #B6B760",
"m. c #BCA37A",
"M. c #C0AD5C",
"N. c #C3B95A",
"B. c #C8AF6D",
"V. c #CAB56A",
"C. c #C7A97E",
"Z. c #D2BD7A",
"A. c #D2B67E",
"S. c #C7C45E",
"D. c #CDCE69",
"F. c #CCC864",
"G. c #CED06C",
"H. c #D4D56A",
"J. c #D6C97D",
"K. c #D0C072",
"L. c #797C86",
"P. c #998D87",
"I. c #A09F9F",
"U. c #A69C84",
"Y. c #A6A084",
"T. c #B3A788",
"R. c #BDB28C",
"E. c #C9AD80",
"W. c #CFB183",
"Q. c #C6B48F",
"!. c #D5B683",
"~. c #DABE8B",
"^. c #D4BB8A",
"/. c #C1B691",
"(. c #D0BD92",
"). c #C7B8A3",
"_. c #D9C487",
"`. c #DDC692",
"'. c #D9C996",
"]. c #E4CE9A",
"[. c #E2DB91",
"{. c #CCC2A9",
"}. c #DBCCA6",
"|. c #DED1A6",
" X c #D2CAB0",
".X c #DCD2B8",
"XX c #ECDBA7",
"oX c #EEDFAB",
"OX c #E3D6B5",
"+X c #E5DBBD",
"@X c #EFE2AE",
"#X c #F1E4B5",
"$X c #D9D0C1",
"%X c #F3E9C6",
"&X c #EEE8D8",
"*X c #F4EDD2",
"=X c #F7F0DE",
"-X c #FBF7EA",
/* pixels */
"e w e 5 5 e e y y y y 9 9 9 w & @ & w w 4 5 5 e 5 e y y y 9 9 9 ",
"@ @ & & & * 1 w e e 9 e w 1 @ o o ; v D J C & & * 1 e e y 5 e w ",
"X O O o @ @ @ @ & * * * @ @ @ ; | G.H.H.H.8.g $ & & @ @ 1 & & & ",
"@ 4 8 # # * * @ o @ @ @ o o $ ~ D.D.S.D.H.f.L > * 4 @ O o @ @ O ",
"e w 1 1 w e y y w 4 4 e e e a d.a.d.a.O.q.0.0.k t y e w 1 w e e ",
"@ & 1 & 1 1 e w 1 w e e e w j a.+.q.k k n J r.S 2 w w w w e e y ",
"# 4 T w @ O @ & & & & @ @ @ > o...J , S _ X.9.b = @ # & & & @ @ ",
"y e b.] 7 @ @ * w & o o o @ < A C C h n S H S i @ @ * w @ @ o O ",
"w w 7.).T e e e w & o o & a :.P.*.;.:.} f : 2 4 e e e e @ o o & ",
"* &  .&XP.d 1 1 & @ o o > { {..X{. X).7.Y : @ @ 1 1 * * o o o @ ",
"* w ) +X$X} 6 @ @ o X X R R.*X=X%X#X|.v.&., w e w * @ @ o X X X ",
"w e W (.OX6.u 4 @ O @ $ -.'.6.*X#X@X].W.5.x t e e e 8 @ O O @ O ",
"@ @ > 2.`.U.P w w w w s U.z.W -X#X].~.!.x.Y - * 1 1 e w w w 1 w ",
"O O % B m.'.) = & * & U T.} I *XXX~.!.!.v.^ > * @ % 0 : : * @ @ ",
"5 5 9 d %.z.g.0 4 y 7 a I h f :.-.$.j.b.4.I > w o x @.f , y 5 # ",
"y y 5 w ! 4.R.M w w w ) =.h f I R l.^.!.h.x 2 r n %.A k k w w e ",
"* @ & & j %.2.$.< / 3 -.'.W L.*XXX`.C.v.=.f h Y %.>.0.Z N & & & ",
"@ O * * % ` ! 4.C O./ @.XXl.I.@X].!.C.<.Q $.j.2.c.s.p.Z C & @ @ ",
"* 5 y y 7 c ` ! / +.+.m T..X$X@X^.v.%.n [ $...b.Z.N.u.Z C O @ @ ",
"w w e 5 s n B B L o.z > ^ /.|.R.-.n k k ) ( !.].[.F.u.D C 4 5 y ",
"& * & & a v b E ..@.c p b @.$.R v B _ G ' %.!.`.J.N.f.~ E w w 1 ",
"O @ @ @ % j k ! b.v.Y , G K v S X.,.9.H ' 5.A.A.A._.!.Q R * & @ ",
"5 5 4 # @ 6 - ! 2.#.x = g L o.,.r.y.9.F ^ #.B.V.J.`.C.n h & @ @ ",
"y w w w w e e t c k c - 6 k L >.,.>.X.N ! R i.N.K.!.2.p = * 4 w ",
"@ @ * & & * w w 1 i p w w , h v z z k h l ! 0.i.V.h.M w w w w w ",
"* 8 w 1 @ @ & @ & = % @ & , , = $ $ : , > x J t.w.B - & @ @ & & ",
"y y y y 4 # @ 4 w * @ o o : , - - 6 > , t r M G N - 4 e * @ o o ",
"e w e e w e e y w 1 o o : > - 7 t t r i 2 r i a r e y e & o o @ ",
"# @ @ @ @ & * 1 @ o X X $ = 2 2 2 = - = = = = @ @ * * * o X X o ",
"# 8 8 8 8 8 * @ X . .   X X @ = $ @ % % % * 8 8 * * @ @ o . X X ",
"w w e e e e e 5 + X X O @ O o @ o # w w w e e e y y 5 4 4 4 4 8 ",
"& * 1 w 1 * e e 4 * * 1 w * & @ @ & & & * 1 w 1 1 e e e w w w e "
};
