/* XPM */
static char *result[] = {
/* columns rows colors chars-per-pixel */
"32 32 190 2 ",
"   c #0B0014",
".  c #0A0915",
"X  c #0E011C",
"o  c #0E0B1C",
"O  c #11011E",
"+  c #18001F",
"@  c #120B1F",
"#  c #130024",
"$  c #1C0026",
"%  c #130A24",
"&  c #1A0926",
"*  c #16002A",
"=  c #1A012C",
"-  c #150A2A",
";  c #1B0A2C",
":  c #131226",
">  c #16142C",
",  c #1C142E",
"<  c #161B2E",
"1  c #1B1B2F",
"2  c #1D0031",
"3  c #1E0930",
"4  c #1C1331",
"5  c #1B1D30",
"6  c #200027",
"7  c #23002D",
"8  c #2B002D",
"9  c #220A2E",
"0  c #34002E",
"q  c #23112D",
"w  c #240033",
"e  c #2C0034",
"r  c #220A32",
"t  c #320033",
"y  c #211030",
"u  c #231F32",
"i  c #1B202F",
"p  c #1C2031",
"a  c #20252F",
"s  c #242532",
"d  c #262932",
"f  c #2C2C35",
"g  c #2D2E39",
"h  c #33253B",
"j  c #2F3436",
"k  c #3B3B34",
"l  c #36343D",
"z  c #3A363B",
"x  c #373938",
"c  c #433B3B",
"v  c #4C4C36",
"b  c #4B443C",
"n  c #53493E",
"m  c #4E523F",
"M  c #515037",
"N  c #535239",
"B  c #56583F",
"V  c #78723C",
"C  c #2C3142",
"Z  c #3B3C43",
"A  c #463F42",
"S  c #543A44",
"D  c #464144",
"F  c #4A4344",
"G  c #534740",
"H  c #5C4D42",
"J  c #50474A",
"K  c #524C49",
"L  c #574A41",
"P  c #5D544D",
"I  c #595642",
"U  c #414653",
"Y  c #5A5A55",
"T  c #655544",
"R  c #635C54",
"E  c #6F5D58",
"W  c #605451",
"Q  c #606547",
"!  c #6F6F45",
"~  c #6E6241",
"^  c #746544",
"/  c #7C6947",
"(  c #766A41",
")  c #787C4E",
"_  c #7B6058",
"`  c #7A6B5C",
"'  c #74665A",
"]  c #6F6D64",
"[  c #6A6C6D",
"{  c #707063",
"}  c #7F796B",
"|  c #7B7565",
" . c #767678",
".. c #8F7E47",
"X. c #82735B",
"o. c #807260",
"O. c #877C66",
"+. c #957D69",
"@. c #907E64",
"#. c #84854F",
"$. c #948546",
"%. c #958C47",
"&. c #9E9443",
"*. c #958D50",
"=. c #969754",
"-. c #A39446",
";. c #A49946",
":. c #AC9E45",
">. c #AFA145",
",. c #B3A645",
"<. c #B7AB49",
"1. c #B7AB49",
"2. c #BBB14D",
"3. c #A7AB5F",
"4. c #ABAD5E",
"5. c #AAA652",
"6. c #BEB551",
"7. c #908067",
"8. c #928369",
"9. c #9C836C",
"0. c #9C886A",
"q. c #898570",
"w. c #A58F6E",
"e. c #A18A66",
"r. c #A98D72",
"t. c #AB8E79",
"y. c #AE9373",
"u. c #AB9B78",
"i. c #B19475",
"p. c #B69976",
"a. c #AEB160",
"s. c #BDA67C",
"d. c #C0AC5C",
"f. c #C4B95B",
"g. c #C4A57C",
"h. c #CCAE7F",
"j. c #CEB474",
"k. c #C8B368",
"l. c #C7C25A",
"z. c #C2C364",
"x. c #CECC64",
"c. c #D0CE64",
"v. c #D5D569",
"b. c #D8DA6D",
"n. c #D3C279",
"m. c #DCDF71",
"M. c #D6D07A",
"N. c #82858B",
"B. c #908F86",
"V. c #908F8C",
"C. c #8A8C91",
"Z. c #B6A68F",
"A. c #B7AA86",
"S. c #B7B48D",
"D. c #ABA192",
"F. c #A4A4A0",
"G. c #BFBBAA",
"H. c #CFB080",
"J. c #CCB689",
"K. c #D5B583",
"L. c #DABD8A",
"P. c #D8BA87",
"I. c #C4B394",
"U. c #C6BC94",
"Y. c #C6BFAA",
"T. c #DBC08D",
"R. c #CDC09B",
"E. c #DEC792",
"W. c #D6C292",
"Q. c #E1CB96",
"!. c #E3CF9B",
"~. c #E5D69B",
"^. c #DED2A1",
"/. c #D4CFBB",
"(. c #E8D5A0",
"). c #E5D1A0",
"_. c #E9D9BE",
"`. c #EFE1AB",
"'. c #E9E3A2",
"]. c #F0E2AF",
"[. c #F1E4B4",
"{. c #F1E6BB",
"}. c #F3E8BE",
"|. c #E2DDC8",
" X c #F4EAC4",
".X c #F3E8CA",
"XX c #E4E2D9",
"oX c #F2E8D2",
"OX c #F7F0D5",
"+X c #F8F5E5",
/* pixels */
"e w e 8 8 e e t t t 0 0 0 0 e # * * 6 w w 8 8 e 8 e t t t 0 0 0 ",
"# # * * * * 2 w e e 8 r s v M j a o O * * * * * = 2 w e t 8 e w ",
"  O O X # # * * * 2 * x :.1.f.v.5.d o   # O # r _ $ # * 2 = * * ",
"# 7 6 $ * = $ + X O 5 $.&.c.b.l.b.a.x   e 6 # G Z.r # X O # # O ",
"w w 2 2 w e t t w 3 f ,.d 3.m.x.v.m.Q w w 2 w t.XXh e w 2 w e e ",
"* * = = = 2 e w w 3 b $.M ) m.4.x.l.d * * * r  .+X{ w w w e e e ",
"$ 6 w 7 O O # * $ * q X.T ! m.=.3.*.> $ 7 w S I._.u.- = * * * # ",
"t t t t = * # = 7 # : f f v v.#.z.k 7 t t t r V.!.w.; 7 * O X X ",
"w 2 2 w w w e e w * O % < < *.P #.5 r e w 2 ; S.E.w.r w # O X # ",
"$ * # # # = 2 2 # # X : K I.D.} U.o.5 = * * - S.s.0.3 $ O X X # ",
"2 w w w w w $ # O X @ J ` | Y.oXoXI.' > w w ; S.O.P % # X       ",
"w w e e e e e w # # < 0.H.!./.B.{.P.y.l w e r S.` P ; * X # # O ",
"# # # $ 2 * w w w 3 D g.P.{.G.[  X).L.` : # - 7.D P r w w w 2 w ",
"O O # $ * # # # * 4 P s.E. XN.U OX(.L.i.d j I O.l D > - 2 * # # ",
"8 8 0 0 3 # X # w , +.y.} C.C p [ O.9.9.p I N K s g b s t e 7 $ ",
"t t e w s A @ X w 4 +.H.q.s < < 5  .A.y.x K ;.-.^ T n 5 e w e e ",
"* # * * i R ` % # > R g.`..XZ < Y.}.Q.r.Z - 5 J P l > @ # * * * ",
"# # $ = v V ` ` p > E T.~.[. .Z  X(.L.p.d $ g r.K.0.% X # * # * ",
"$ e e 0 M ,.:.e.8.8.R ' W.[.|.F. X(.g.D 9 e y Z D s 7 7 # O # # ",
"w w e 0 N ,.6.K.0.P | Y 8.`. X X].J.l f r e e f s e t t 8 7 8 e ",
"* # * * N ,.l.'.T.K.R P s R U.^.] a H H , * * > ; 2 w w w w w 2 ",
"# * # # I d.1.n.Q.K.` P n n f g c ^ -./ d # # # * $ * * = 2 * * ",
"8 8 7 $ P P.~.n.P.h.r.P ^ %.T n ..,.,.&.z 7 $ # w = + O # * # O ",
"e e w 2 g j.E.M.f.j.` P T ;.,.-.,.,.,.^ p 4 2 w e t e 7 $ = = w ",
"# * * * - X.K.k.6.1.b K H $.>.,.,.>.( p < < $ * 2 w w 2 2 7 e w ",
"$ 6 e 2 # > @.j.,.%.P i f c c b b z 5 , ; < ; # # * * * # * * # ",
"t t t t 7 $ , 0.&.x 1 X % < < ; ; 9 e t e y e e * # 7 e * # X X ",
"e w e w e e e y f h O X & < , e t e e e w e w e e 8 t e * O X # ",
"* * # * * * $ 2 - X X o % > < 3 ; - ; ; & # * * * * 2 * O     X ",
"+ 6 $ $ $ $ $ #     . . o : % - % % & & ; ; $ 6 = $ # O X       ",
"e w w t e e e 8 O   o % - % % % % - 3 3 r w e e t t e 8 7 7 7 6 ",
"* = 2 w 2 2 e e w = $ 2 r = - - % - = = * 2 w 2 2 e e w w w w e "
};
